<?xml version="1.0" encoding="utf-8"?>
<!-- Generator: Adobe Illustrator 25.4.1, SVG Export Plug-In . SVG Version: 6.00 Build 0)  -->
<svg version="1.1" id="Calque_1" xmlns="http://www.w3.org/2000/svg" xmlns:xlink="http://www.w3.org/1999/xlink" x="0px" y="0px"
	 viewBox="0 0 800 800" style="enable-background:new 0 0 800 800;" xml:space="preserve">
<style type="text/css">
	.st0{fill:#FFFFFF;}
	.st1{fill:#004FFF;}
	.st2{fill:#0049FF;}
</style>
<g id="Design">
	<g>
		<g>
			<path class="st0" d="M519.85,741.35l-397.11,40.1l26.06-740.8l397.11-40.1c58.34-5.89,103.95,36.59,101.91,94.87l-18.63,529.73
				C627.13,683.43,578.19,735.46,519.85,741.35z"/>
			<path class="st1" d="M148.79,40.64L580.9,30.27c9.8-0.24,17.78,7.87,17.43,17.71l-2.83,80.64L148.79,40.64z"/>
			<path class="st0" d="M645.93,799.99l-523.18-18.55l26.06-740.8l523.18,18.55c8.63,0.31,15.36,7.57,15.07,16.23l-24.96,709.44
				C661.79,793.52,654.55,800.3,645.93,799.99z"/>
		</g>
		<path class="st2" d="M339.32,294.97c7.56-29.14,19.16-53.13,33.06-68.57c-23.55,5.47-45.37,17.04-63.51,34.03
			c-4.7,4.39-9.02,9.04-13.01,13.94c2.73,1.91,5.63,3.77,8.7,5.55C314.73,285.85,326.39,290.9,339.32,294.97z M462.35,372.79
			l-50.91-1.8l-1.04,29.48c16.86,1.03,32.95,3.49,47.87,7.13C460.27,396.43,461.65,384.76,462.35,372.79z M335.87,310.01
			c-19.1-5.92-35.81-13.86-49.11-23.22c-12.28,18.96-19.78,40.67-21.8,63.61l65.49,2.33C331.33,337.79,333.18,323.46,335.87,310.01z
			 M478.21,357.95l65.49,2.33c-0.43-23.02-6.37-45.21-17.28-64.99c-13.91,8.4-31.13,15.13-50.6,19.68
			C477.55,328.58,478.39,343,478.21,357.95z M460.77,317.96c-14.95,2.49-30.94,3.77-47.58,3.61l-1.2,34.03l50.91,1.81
			C463.04,343.83,462.32,330.58,460.77,317.96z M509.19,287.19c3.18-1.56,6.22-3.21,9.08-4.93c-3.64-5.17-7.64-10.12-12.02-14.83
			c-16.92-18.22-37.87-31.32-60.96-38.45c12.78,16.38,22.67,41.14,28.16,70.74C486.61,296.57,498.61,292.37,509.19,287.19z
			 M329.91,368.09l-65.49-2.33c0.4,21.73,5.72,42.7,15.49,61.63c14.07-8.85,31.76-15.95,51.86-20.71
			C330.41,394.37,329.75,381.43,329.91,368.09z M446.18,261.04c-8.35-19.25-18.82-32.04-29.59-36.46l-2.88,81.61
			c15.38,0.13,30.37-1.03,44.72-3.45C455.63,287.45,451.51,273.36,446.18,261.04z M455.16,422.65c-14.42-3.55-29.61-5.83-45.29-6.82
			L406.84,502c11.05-3.64,22.4-15.66,32.07-34.28C445.69,454.69,451.16,439.41,455.16,422.65z M469.88,426.81
			c-7.5,31.05-19.56,56.64-34.13,72.83c23.55-5.47,45.37-17.04,63.51-34.03c5.63-5.26,10.75-10.93,15.38-16.91
			c-3.36-2.47-7-4.88-10.9-7.14C493.81,435.78,482.44,430.83,469.88,426.81z M369.22,258.32c-6.18,11.9-11.28,25.68-15.17,40.74
			c14.14,3.42,29.02,5.64,44.37,6.6l2.88-81.61C390.24,227.69,378.89,239.7,369.22,258.32z M477.67,373.33
			c-0.78,13.33-2.33,26.19-4.58,38.37c19.73,6.19,36.87,14.51,50.28,24.33c11.08-18.19,17.87-38.74,19.79-60.38L477.67,373.33z
			 M346.84,403.63c15.14-2.58,31.37-3.89,48.26-3.73l1.04-29.48l-50.91-1.81C345.1,380.62,345.64,392.36,346.84,403.63z
			 M345.77,353.26l50.91,1.81l1.2-34.03c-16.61-1.02-32.48-3.43-47.21-6.98C348.22,326.53,346.58,339.69,345.77,353.26z M361.94,465
			c8.35,19.27,18.82,32.04,29.59,36.46l3.04-86.17c-15.71-0.13-31.02,1.08-45.66,3.59C351.73,435.89,356.1,451.52,361.94,465z
			 M299.1,434.3c-4.05,1.99-7.86,4.12-11.39,6.35c4.2,6.3,8.91,12.31,14.16,17.96c16.92,18.22,37.87,31.32,60.96,38.45
			c-13.4-17.18-23.62-43.56-28.92-75.07C321.12,425.11,309.44,429.24,299.1,434.3z"/>
		
			<rect x="356.94" y="484.64" transform="matrix(0.0352 -0.9994 0.9994 0.0352 -340.2622 1059.9596)" class="st2" width="43.77" height="443.13"/>
	</g>
</g>
</svg>
