<svg xmlns="http://www.w3.org/2000/svg" xmlns:v="https://vecta.io/nano" xmlns:xlink="http://www.w3.org/1999/xlink" id="Calque_1" x="0" y="0" version="1.1" viewBox="0 0 390 80" xml:space="preserve" style="enable-background:new 0 0 390 80"><style type="text/css">.st0{fill:#9e9d9d}.st1{fill:#fff}.st2{fill:#af0200}.st3{opacity:.54;fill:#c4c4c4;enable-background:new}.st4{opacity:.78}</style><path d="M63.3,74.6l-33.6,1.7l5.3-62l33.6-1.7c4.9-0.2,8.6,3.5,8.2,8.4L73,65.3C72.6,70.2,68.2,74.3,63.3,74.6z" class="st0"/><path d="M35,14.2l36.4,0.9c0.8,0,1.5,0.7,1.4,1.6l-0.6,6.8L35,14.2z" class="st1"/><path d="M64.4,79.2l-34.7-3l5.3-62l34.7,3c5.9,0.5,10.2,5.6,9.7,11.5l-3.5,40.8C75.4,75.4,70.3,79.7,64.4,79.2z" class="st0"/><path d="M50,36.4c0.8-2.4,1.8-4.4,3.1-5.6c-2,0.4-3.9,1.2-5.5,2.6c-0.4,0.3-0.8,0.7-1.2,1.1c0.2,0.2,0.5,0.3,0.7,0.5	C47.9,35.5,48.9,36,50,36.4z M60,43.4L55.7,43l-0.2,2.5c1.4,0.2,2.8,0.4,4,0.8C59.5,46.3,60,43.4,60,43.4z M49.6,37.6	c-1.6-0.6-3-1.3-4-2.2c-1.1,1.5-1.8,3.3-2.1,5.2l5.5,0.5C49.1,39.9,49.3,38.7,49.6,37.6z M61.4,42.2l5.5,0.5	c0.1-1.9-0.3-3.8-1.2-5.5c-1.2,0.6-2.7,1.1-4.3,1.4C61.5,39.8,61.5,41,61.4,42.2z M60.1,38.8c-1.3,0.1-2.6,0.2-4,0.1l-0.2,2.8	l4.3,0.4L60.1,38.8z M64.3,36.4c0.3-0.1,0.5-0.2,0.8-0.4l-0.9-1.3c-1.3-1.6-3.1-2.8-5-3.5c1,1.4,1.7,3.5,2.1,6.1	C62.4,37.1,63.4,36.8,64.3,36.4z M48.9,42.5L43.4,42c-0.1,1.8,0.3,3.6,1,5.2c1.2-0.7,2.7-1.2,4.5-1.5C48.8,44.7,48.8,43.6,48.9,42.5	z M59.1,34c-0.6-1.7-1.5-2.8-2.3-3.2l-0.6,6.8c1.3,0.1,2.6,0,3.8-0.1C59.8,36.2,59.5,35,59.1,34z M59.2,47.6	c-1.2-0.4-2.5-0.6-3.8-0.8L54.8,54c0.9-0.3,2-1.2,2.8-2.7C58.2,50.2,58.8,49,59.2,47.6z M60.4,48c-0.8,2.6-1.9,4.7-3.2,6	c2-0.4,3.9-1.2,5.5-2.6c0.5-0.4,1-0.9,1.4-1.4l-0.9-0.6C62.4,48.8,61.4,48.4,60.4,48z M52.6,33.4c-0.6,1-1.1,2.1-1.4,3.4	c1.2,0.3,2.4,0.6,3.7,0.7l0.6-6.8C54.5,30.9,53.5,31.9,52.6,33.4z M61.3,43.5c-0.1,1.1-0.3,2.2-0.5,3.2c1.6,0.6,3,1.4,4.1,2.3	c1-1.5,1.7-3.2,1.9-5C66.8,44,61.3,43.5,61.3,43.5z M50.1,45.5c1.3-0.2,2.7-0.2,4.1-0.1l0.2-2.5l-4.3-0.4V45.5z M50.3,41.3l4.3,0.4	l0.2-2.8c-1.4-0.2-2.7-0.4-3.9-0.8C50.6,39.1,50.4,40.2,50.3,41.3z M51.2,50.7c0.6,1.7,1.5,2.8,2.3,3.2l0.6-7.2	c-1.3-0.1-2.6,0-3.9,0.1C50.4,48.2,50.7,49.6,51.2,50.7z M46,47.9c-0.4,0.1-0.7,0.3-1,0.5c0.3,0.6,0.7,1.1,1.1,1.6	c1.3,1.6,3.1,2.8,5,3.5C50,51.9,49.3,49.7,49,47C47.9,47.2,46.9,47.5,46,47.9z M33.4,71.5l0.3-3.7L71,70.9l-0.3,3.7L33.4,71.5z" class="st2"/><path d="M30.3,69.6l-0.1,1.2l26.7-3.5c4.8-0.6,8-5.1,7.1-9.8L56,16l-7.9-0.7l-11,37L30.3,69.6z" class="st3"/><path d="M45.3,61.8L13.6,73L1,12L32.7,0.9C37.4-0.8,42,1.8,43,6.6l9,43.6C52.9,55,50,60.2,45.3,61.8z" class="st1"/><path d="M1,12l35.2-9.5C37,2.4,37.8,2.9,38,3.7l1.4,6.6L1,12z" class="st2"/><path d="M47.7,66l-34.1,7L1,12l34.1-7c5.8-1.2,11.4,2.5,12.6,8.3L56,53.4C57.1,59.2,53.4,64.8,47.7,66z" class="st1"/><path d="M21.7,29c0-2.5,0.5-4.7,1.3-6.3c-1.8,0.9-3.4,2.3-4.5,4c-0.3,0.5-0.6,0.9-0.8,1.4l0.8,0.3	C19.5,28.8,20.5,28.9,21.7,29z M33.3,32.9l-4.2,0.9l0.5,2.4c1.4-0.3,2.8-0.4,4.1-0.4C33.7,35.8,33.3,32.9,33.3,32.9z M21.7,30.3	c-1.7-0.1-3.2-0.4-4.5-0.9c-0.6,1.8-0.8,3.7-0.5,5.6l5.4-1.1C21.9,32.7,21.7,31.5,21.7,30.3z M34.3,31.4l5.4-1.1	c-0.5-1.9-1.4-3.6-2.7-5c-1,1-2.3,1.9-3.8,2.6C33.7,29,34,30.2,34.3,31.4z M32.1,28.5c-1.2,0.5-2.5,0.9-3.8,1.2l0.6,2.8l4.2-0.9	C33.1,31.6,32.1,28.5,32.1,28.5z M35.4,25l0.6-0.6c-0.4-0.3-0.8-0.7-1.3-1c-1.7-1.2-3.7-1.8-5.8-1.9c1.4,1.1,2.7,2.9,3.7,5.2	C33.8,26.2,34.7,25.6,35.4,25z M22.3,35.2l-5.4,1.1c0.5,1.8,1.3,3.4,2.5,4.7c1-1,2.3-1.9,3.8-2.7L22.3,35.2z M29.7,24.1	c-1.1-1.4-2.2-2.2-3.1-2.4l1.4,6.7c1.3-0.3,2.5-0.7,3.6-1.2C31,26.1,30.4,25,29.7,24.1z M33.7,37.1c-1.3,0-2.5,0.1-3.8,0.3l1.5,7.1	c0.8-0.5,1.5-1.7,1.9-3.4C33.5,39.9,33.7,38.6,33.7,37.1z M35,37.2c0,2.7-0.5,5-1.4,6.6c1.8-0.9,3.4-2.3,4.5-4	c0.4-0.5,0.7-1.1,0.9-1.7c-0.3-0.1-0.7-0.3-1-0.4C37.1,37.4,36.1,37.2,35,37.2z M23.4,25.4C23.1,26.5,23,27.7,23,29	c1.2,0,2.5-0.1,3.8-0.3L25.3,22C24.5,22.5,23.8,23.7,23.4,25.4z M34.5,32.6c0.2,1.1,0.3,2.2,0.4,3.2c1.7,0.1,3.3,0.5,4.6,1	c0.5-1.7,0.7-3.5,0.4-5.3L34.5,32.6z M24.4,37.7c1.2-0.5,2.5-0.9,3.9-1.3L27.8,34l-4.2,0.9C23.8,35.9,24.1,36.8,24.4,37.7z M23.3,33.6l4.2-0.9L27,30l-4,0.4C23,31.4,23.1,32.5,23.3,33.6z M26.9,42.4c1.1,1.4,2.2,2.2,3.1,2.4l-1.5-7.1	c-1.3,0.3-2.5,0.7-3.7,1.2C25.5,40.3,26.1,41.5,26.9,42.4z M21.1,41.2c-0.3,0.2-0.6,0.5-0.8,0.7l1.5,1.2c1.7,1.2,3.7,1.8,5.8,1.9	c-1.4-1.1-2.8-3.1-3.9-5.6C22.7,40,21.9,40.6,21.1,41.2z M14.4,63.7L51,56.2l0.7,3.6l-36.6,7.5L14.4,63.7z" class="st2"/><g><path d="M105.4,22.2l3.2,8.1h5.6l-6-15.8h-5.6l-6.1,15.8h5.7L105.4,22.2z M91.4,43.5h5.7l2.4-6h11.8l2.3,6h5.7 l-3.1-8.2H94.6L91.4,43.5z M129.8,28.1c1.1-1.1,2.5-1.7,4.2-1.7c1.6,0,3,0.5,4.1,1.7c0.6,0.6,1,1.4,1.3,2.2h5.5 c-0.4-2.2-1.2-4.1-2.7-5.6c-1.9-2.1-4.3-3.2-7.1-3.2c-1.3,0-2.5,0.2-3.6,0.7c-1.2,0.5-2.2,1.2-3.2,2.2V22H123v8.3h5.5 C128.8,29.5,129.2,28.7,129.8,28.1z M138.1,37.2c-1.1,1.2-2.5,1.8-4.1,1.8c-1.7,0-3.1-0.6-4.2-1.8c-0.5-0.6-0.9-1.2-1.2-1.9H123 v15.9h5.3V41.1c1,0.9,2,1.6,3.2,2.2c1,0.5,2.2,0.7,3.4,0.7c2.8,0,5.2-1.1,7.2-3.2c1.5-1.5,2.4-3.4,2.8-5.5h-5.6 C139,36,138.6,36.6,138.1,37.2L138.1,37.2z M156.4,28.1c1.1-1.1,2.5-1.7,4.2-1.7s3,0.5,4.1,1.7c0.6,0.6,1,1.4,1.3,2.2h5.5 c-0.4-2.2-1.2-4.1-2.7-5.6c-1.9-2.1-4.3-3.2-7.1-3.2c-1.3,0-2.5,0.2-3.6,0.7c-1.2,0.5-2.2,1.2-3.2,2.2V22h-5.3v8.3h5.5 C155.4,29.5,155.8,28.7,156.4,28.1z M164.7,37.2c-1.1,1.2-2.5,1.8-4.1,1.8c-1.7,0-3.1-0.6-4.2-1.8c-0.5-0.6-0.9-1.2-1.2-1.9h-5.6 v15.9h5.3V41.1c1,0.9,2,1.6,3.2,2.2c1,0.5,2.2,0.7,3.4,0.7c2.8,0,5.2-1.1,7.2-3.2c1.5-1.5,2.4-3.4,2.8-5.5h-5.6 C165.6,36,165.2,36.6,164.7,37.2L164.7,37.2z M175.6,13.8h5.4v16.5h-5.4V13.8z M175.6,35.3h5.4v8.2h-5.4V35.3z M189,22h-5.5 l3.4,8.3h5.6L189,22z M194.6,35.4L194.6,35.4l-5.7-0.1l2.7,6.6l-4.4,9.4h5.6l7.3-16L194.6,35.4L194.6,35.4z M206.2,22h-5.5 l-3.8,8.3h5.5L206.2,22z M251.2,37.9c-1.3,0.6-2.8,0.9-4.4,0.9c-1.9,0-3.6-0.4-5.1-1.3c-1.1-0.6-2-1.3-2.7-2.2h-6.4 c0.7,1.6,1.7,3.1,3,4.4c2.9,2.9,6.6,4.3,11.1,4.3c2.4,0,4.6-0.4,6.5-1.2s4-2.2,6.1-4.3l-3-3.2h-1.4 C253.5,36.5,252.3,37.4,251.2,37.9L251.2,37.9z M236.8,28.9c0-2.8,0.9-5.1,2.8-7s4.2-2.8,7-2.8c3.3,0,6.3,1.4,8.9,4.2l3.9-3.7 c-1.6-1.9-3.5-3.5-5.7-4.5c-2.2-1-4.5-1.5-6.9-1.5c-2.8,0-5.5,0.7-7.9,2c-2.4,1.3-4.3,3.2-5.6,5.4s-2,4.8-2,7.7 c0,0.5,0,1.1,0.1,1.6h5.5C236.8,29.8,236.8,29.4,236.8,28.9z M261.9,43.5h5.7l2.4-6h11.8l2.3,6h5.7l-3.1-8.2h-21.6L261.9,43.5z M275.9,22.2l3.2,8.1h5.6l-6-15.8h-5.6L267,30.3h5.7L275.9,22.2z M296.9,39.1c-0.7,0-1.2,0.3-1.7,0.7s-0.7,1-0.7,1.7 c0,0.6,0.2,1.3,0.7,1.7c0.4,0.5,1.1,0.7,1.7,0.7c0.6,0,1.3-0.2,1.7-0.7c0.5-0.4,0.7-1.1,0.7-1.7c0-0.6-0.2-1.3-0.7-1.7 C298.2,39.3,297.5,39.1,296.9,39.1z M309.4,26.6c1.7-1.7,3.9-2.5,6.5-2.5c3.2,0,5.8,1.3,7.7,3.8l2.2-1.4c-0.6-1.1-1.4-2-2.1-2.9 c-1-0.7-2.1-1.3-3.4-1.7s-2.7-0.6-4.1-0.6c-2.2,0-4.3,0.5-6.1,1.5s-3.3,2.4-4.3,4.2c-0.6,1.1-1.1,2.2-1.3,3.3h2.7 C307.5,28.9,308.3,27.7,309.4,26.6L309.4,26.6z M307.5,40.7c2.2,2.1,5,3.2,8.4,3.2c2.2,0,4.2-0.5,5.9-1.3c1.7-0.9,3.1-2.1,4.1-3.6 l-2.2-1.4c-2,2.5-4.6,3.8-7.7,3.8c-1.8,0-3.3-0.3-4.7-1.1s-2.5-1.8-3.3-3.2l-0.8-1.8h-2.7C304.9,37.3,305.9,39.1,307.5,40.7 L307.5,40.7z M348.3,37.1c-0.7,1.3-1.7,2.4-3,3.1s-2.7,1.1-4.2,1.1s-2.9-0.4-4.2-1.1c-1.2-0.7-2.2-1.8-3-3.1 c-0.3-0.6-0.5-1.2-0.7-1.8h-2.7c0.4,1.9,1.3,3.7,2.8,5.3c2.1,2.3,4.8,3.4,8.1,3.4c3.2,0,5.9-1.2,8-3.4c1.5-1.6,2.4-3.3,2.8-5.3H349 C348.9,35.9,348.6,36.5,348.3,37.1z M335.3,26.7c1.6-1.7,3.6-2.5,5.9-2.5s4.3,0.8,5.7,2.5c1.1,1,1.8,2.2,2.2,3.6h3.2 c-0.4-1.9-1.3-3.7-2.7-5.2c-2.2-2.4-4.9-3.6-8.2-3.6c-3.4,0-6.1,1.2-8.1,3.6c-1.4,1.6-2.3,3.3-2.7,5.2h2.7 C333.6,29,334.3,27.8,335.3,26.7z M357.2,35.3h2.8v8.4h-2.8V35.3z M360.8,28.6c0.6-1.3,1.4-2.3,2.5-3.1s2.3-1.2,3.6-1.2 c1.1,0,2.1,0.3,2.9,0.8s1.4,1.3,1.7,2.2c0.2,0.7,0.4,1.7,0.4,3h3.2c0.1-0.7,0.3-1.2,0.4-1.7c0.4-1.3,1.3-2.4,2.4-3.2 c1.1-0.8,2.4-1.2,3.7-1.2c1.1,0,2,0.3,2.8,0.8s1.4,1.2,1.7,2.1c0.2,0.6,0.4,1.7,0.5,3.2h2.8c-0.1-2-0.4-3.6-0.8-4.7 c-0.5-1.3-1.4-2.4-2.5-3.1s-2.4-1.1-3.9-1.1s-3,0.4-4.4,1.3c-1.3,0.8-2.5,2.1-3.4,3.8c-0.4-1.3-0.9-2.2-1.5-2.9s-1.4-1.2-2.3-1.6 c-1-0.4-2-0.6-3-0.6c-1.5,0-3,0.5-4.4,1.3c-1.1,0.6-2,1.6-3,3V22h-2.8h-0.3v8.3h3.1C360.5,29.6,360.6,29.1,360.8,28.6L360.8,28.6z M372,35.3h2.8v8.3H372V35.3z M386.7,35.3h2.8v8h-2.8V35.3z" class="st1"/><path d="M389.5,30.3L389.5,30.3 M211,30.3h15.1v5H211V30.3z" class="st1"/><path d="M254.9,35.3h1.4l-0.7-0.7L254.9,35.3z M284.7,30.3h-5.6 M272.7,30.3H267 M307.1,30.3h-2.7 M352.2,30.3H349 M333.2,30.3h-2.7 M375.2,30.3H372 M389.5,30.3h-2.8" class="st1"/><path d="M360.3,30.3h-3.1" class="st1"/></g><g class="st4"><path d="M93.2,54.5h2.4c1.4,0,2.3,0.1,2.8,0.2c0.7,0.2,1.3,0.5,1.7,1.1s0.7,1.2,0.7,2c0,0.8-0.2,1.5-0.6,2 c-0.4,0.5-1,0.9-1.8,1.1c-0.6,0.1-1.6,0.2-3.1,0.2h-0.9v5.7h-1.2V54.5z M94.4,55.7v4.1l2.1,0c0.8,0,1.4-0.1,1.8-0.2 s0.7-0.4,0.9-0.7s0.3-0.7,0.3-1.1c0-0.4-0.1-0.8-0.3-1.1c-0.2-0.3-0.5-0.6-0.9-0.7c-0.4-0.1-1-0.2-1.8-0.2H94.4z" class="st1"/><path d="M107.4,57.5c1.4,0,2.5,0.5,3.5,1.5c0.8,0.9,1.2,2,1.2,3.3c0,1.3-0.4,2.4-1.3,3.3c-0.9,0.9-2,1.4-3.4,1.4 c-1.4,0-2.5-0.5-3.4-1.4c-0.9-0.9-1.3-2-1.3-3.3c0-1.2,0.4-2.3,1.2-3.2C104.8,58,106,57.5,107.4,57.5z M107.3,58.6 c-1,0-1.8,0.4-2.5,1.1c-0.7,0.7-1,1.6-1,2.6c0,0.7,0.2,1.3,0.5,1.8c0.3,0.6,0.7,1,1.3,1.3c0.5,0.3,1.1,0.5,1.8,0.5 c0.6,0,1.2-0.2,1.8-0.5c0.5-0.3,1-0.7,1.3-1.3c0.3-0.6,0.5-1.2,0.5-1.8c0-1-0.3-1.9-1-2.6C109.1,59,108.3,58.6,107.3,58.6z" class="st1"/><path d="M113,57.7h1.2l2.8,6.5l2.9-6.5h0.2l2.9,6.5l2.8-6.5h1.2l-3.9,9h-0.2l-2.9-6.5l-2.9,6.5h-0.2L113,57.7z" class="st1"/><path d="M135.9,63.7l1,0.5c-0.3,0.6-0.7,1.1-1.1,1.5c-0.4,0.4-0.9,0.7-1.4,0.9c-0.5,0.2-1.1,0.3-1.8,0.3 c-1.5,0-2.6-0.5-3.5-1.4c-0.8-1-1.2-2.1-1.2-3.3c0-1.1,0.4-2.2,1.1-3.1c0.9-1.1,2.1-1.7,3.6-1.7c1.5,0,2.8,0.6,3.7,1.7 c0.7,0.8,1,1.9,1,3.1h-8.1c0,1,0.4,1.9,1,2.6s1.4,1,2.4,1c0.5,0,0.9-0.1,1.3-0.2c0.4-0.2,0.8-0.4,1.1-0.6 C135.2,64.8,135.5,64.3,135.9,63.7z M135.9,61.3c-0.2-0.6-0.4-1.1-0.7-1.5s-0.7-0.7-1.2-0.9c-0.5-0.2-1-0.3-1.5-0.3 c-0.9,0-1.6,0.3-2.3,0.9c-0.5,0.4-0.8,1-1.1,1.9H135.9z" class="st1"/><path d="M138.9,57.7h1.2V59c0.4-0.5,0.7-0.9,1.1-1.2c0.4-0.3,0.8-0.4,1.2-0.4c0.3,0,0.7,0.1,1,0.3l-0.6,1 c-0.2-0.1-0.4-0.2-0.6-0.2c-0.4,0-0.8,0.2-1.1,0.5c-0.4,0.3-0.6,0.8-0.8,1.5c-0.1,0.5-0.2,1.6-0.2,3.1v3.1h-1.2V57.7z" class="st1"/><path d="M152,63.7l1,0.5c-0.3,0.6-0.7,1.1-1.1,1.5c-0.4,0.4-0.9,0.7-1.4,0.9c-0.5,0.2-1.1,0.3-1.8,0.3 c-1.5,0-2.6-0.5-3.5-1.4c-0.8-1-1.2-2.1-1.2-3.3c0-1.1,0.4-2.2,1.1-3.1c0.9-1.1,2.1-1.7,3.6-1.7c1.5,0,2.8,0.6,3.7,1.7 c0.7,0.8,1,1.9,1,3.1h-8.1c0,1,0.4,1.9,1,2.6s1.4,1,2.4,1c0.5,0,0.9-0.1,1.3-0.2c0.4-0.2,0.8-0.4,1.1-0.6 C151.4,64.8,151.7,64.3,152,63.7z M152,61.3c-0.2-0.6-0.4-1.1-0.7-1.5s-0.7-0.7-1.2-0.9c-0.5-0.2-1-0.3-1.5-0.3 c-0.9,0-1.6,0.3-2.3,0.9c-0.5,0.4-0.8,1-1.1,1.9H152z" class="st1"/><path d="M164.5,54.2v12.5h-1.1v-1.5c-0.5,0.6-1,1-1.6,1.3c-0.6,0.3-1.3,0.4-2,0.4c-1.3,0-2.4-0.5-3.3-1.4 s-1.4-2.1-1.4-3.4c0-1.3,0.5-2.4,1.4-3.3s2-1.4,3.3-1.4c0.7,0,1.4,0.2,2,0.5c0.6,0.3,1.1,0.8,1.6,1.4v-5.1H164.5z M159.8,58.6 c-0.6,0-1.2,0.2-1.8,0.5s-1,0.8-1.3,1.3c-0.3,0.6-0.5,1.2-0.5,1.8c0,0.6,0.2,1.2,0.5,1.8c0.3,0.6,0.8,1,1.3,1.4 c0.5,0.3,1.1,0.5,1.8,0.5c0.6,0,1.2-0.2,1.8-0.5c0.6-0.3,1-0.8,1.3-1.3c0.3-0.5,0.5-1.2,0.5-1.8c0-1-0.3-1.9-1-2.6 C161.7,59,160.9,58.6,159.8,58.6z" class="st1"/><path d="M172,54.5h2.4c1,0,1.7,0.1,2.2,0.3c0.5,0.2,0.9,0.6,1.2,1.1s0.5,1,0.5,1.6c0,0.5-0.1,1-0.4,1.5 c-0.3,0.4-0.7,0.8-1.2,1.1c0.6,0.2,1.1,0.5,1.5,0.8s0.6,0.6,0.8,1.1s0.3,0.9,0.3,1.3c0,1-0.4,1.8-1.1,2.5c-0.7,0.7-1.7,1-2.9,1H172 V54.5z M173.2,55.7v3.9h0.7c0.8,0,1.5-0.1,1.9-0.2c0.4-0.2,0.7-0.4,0.9-0.7s0.3-0.7,0.3-1.1c0-0.6-0.2-1-0.6-1.3 c-0.4-0.3-1-0.5-1.9-0.5H173.2z M173.2,60.9v4.7h1.5c0.9,0,1.5-0.1,2-0.3c0.4-0.2,0.7-0.4,1-0.8s0.4-0.8,0.4-1.2 c0-0.5-0.2-1-0.5-1.4c-0.4-0.4-0.8-0.7-1.5-0.8c-0.4-0.1-1.1-0.1-2.2-0.1H173.2z" class="st1"/><path d="M180.6,57.7h1.2l3.1,6.9l3-6.9h1.2L183.8,70h-1.2l1.7-4L180.6,57.7z" class="st1"/><path d="M195.6,54.5h7v1.2h-5.8v3.8h5.7v1.2h-5.7v4.8h5.7v1.2h-6.9V54.5z" class="st1"/><path d="M204.3,54.2h1.2v12.5h-1.2V54.2z" class="st1"/><path d="M215.5,63.7l1,0.5c-0.3,0.6-0.7,1.1-1.1,1.5c-0.4,0.4-0.9,0.7-1.4,0.9c-0.5,0.2-1.1,0.3-1.8,0.3 c-1.5,0-2.6-0.5-3.5-1.4c-0.8-1-1.2-2.1-1.2-3.3c0-1.1,0.4-2.2,1.1-3.1c0.9-1.1,2.1-1.7,3.6-1.7c1.5,0,2.8,0.6,3.7,1.7 c0.7,0.8,1,1.9,1,3.1h-8.1c0,1,0.4,1.9,1,2.6s1.4,1,2.4,1c0.5,0,0.9-0.1,1.3-0.2c0.4-0.2,0.8-0.4,1.1-0.6 C214.8,64.8,215.1,64.3,215.5,63.7z M215.5,61.3c-0.2-0.6-0.4-1.1-0.7-1.5s-0.7-0.7-1.2-0.9c-0.5-0.2-1-0.3-1.5-0.3 c-0.9,0-1.6,0.3-2.3,0.9c-0.5,0.4-0.8,1-1.1,1.9H215.5z" class="st1"/><path d="M227.7,59.6l-0.9,0.6c-0.8-1.1-1.9-1.6-3.3-1.6c-1.1,0-2,0.4-2.7,1.1c-0.7,0.7-1.1,1.6-1.1,2.6 c0,0.7,0.2,1.3,0.5,1.9c0.3,0.6,0.8,1,1.4,1.3s1.2,0.5,2,0.5c1.3,0,2.4-0.5,3.2-1.6l0.9,0.6c-0.4,0.6-1,1.2-1.7,1.5 c-0.7,0.4-1.6,0.5-2.5,0.5c-1.4,0-2.6-0.5-3.5-1.4s-1.4-2-1.4-3.3c0-0.9,0.2-1.7,0.7-2.4s1-1.3,1.8-1.8c0.8-0.4,1.6-0.6,2.6-0.6 c0.6,0,1.2,0.1,1.7,0.3c0.6,0.2,1,0.4,1.4,0.7S227.4,59.1,227.7,59.6z" class="st1"/><path d="M230.9,54.4h1.2v3.3h1.8v1h-1.8v8h-1.2v-8h-1.6v-1h1.6V54.4z" class="st1"/><path d="M235.2,57.7h1.2V59c0.4-0.5,0.7-0.9,1.1-1.2c0.4-0.3,0.8-0.4,1.2-0.4c0.3,0,0.7,0.1,1,0.3l-0.6,1 c-0.2-0.1-0.4-0.2-0.6-0.2c-0.4,0-0.8,0.2-1.1,0.5c-0.4,0.3-0.6,0.8-0.8,1.5c-0.1,0.5-0.2,1.6-0.2,3.1v3.1h-1.2V57.7z" class="st1"/><path d="M245,57.5c1.4,0,2.5,0.5,3.5,1.5c0.8,0.9,1.2,2,1.2,3.3c0,1.3-0.4,2.4-1.3,3.3c-0.9,0.9-2,1.4-3.4,1.4 c-1.4,0-2.5-0.5-3.4-1.4c-0.9-0.9-1.3-2-1.3-3.3c0-1.2,0.4-2.3,1.2-3.2C242.5,58,243.6,57.5,245,57.5z M245,58.6 c-1,0-1.8,0.4-2.5,1.1c-0.7,0.7-1,1.6-1,2.6c0,0.7,0.2,1.3,0.5,1.8c0.3,0.6,0.7,1,1.3,1.3c0.5,0.3,1.1,0.5,1.8,0.5 c0.6,0,1.2-0.2,1.8-0.5c0.5-0.3,1-0.7,1.3-1.3c0.3-0.6,0.5-1.2,0.5-1.8c0-1-0.3-1.9-1-2.6C246.8,59,246,58.6,245,58.6z" class="st1"/><path d="M251.9,57.7h1.2v1.6c0.5-0.6,1-1.1,1.5-1.4c0.6-0.3,1.2-0.5,1.8-0.5c0.7,0,1.3,0.2,1.8,0.5s0.9,0.8,1.2,1.4 c0.2,0.6,0.4,1.5,0.4,2.7v4.6h-1.2v-4.3c0-1,0-1.7-0.1-2.1c-0.1-0.6-0.4-1-0.8-1.3c-0.4-0.3-0.9-0.5-1.5-0.5 c-0.7,0-1.3,0.2-1.9,0.7c-0.6,0.5-0.9,1-1.1,1.7c-0.1,0.4-0.2,1.3-0.2,2.5v3.3h-1.2V57.7z" class="st1"/><path d="M262.6,54c0.3,0,0.5,0.1,0.7,0.3c0.2,0.2,0.3,0.4,0.3,0.7c0,0.3-0.1,0.5-0.3,0.7c-0.2,0.2-0.4,0.3-0.7,0.3 c-0.3,0-0.5-0.1-0.7-0.3c-0.2-0.2-0.3-0.4-0.3-0.7c0-0.3,0.1-0.5,0.3-0.7C262.1,54.1,262.4,54,262.6,54z M262,57.7h1.2v9H262V57.7z" class="st1"/><path d="M274.4,59.6l-0.9,0.6c-0.8-1.1-1.9-1.6-3.3-1.6c-1.1,0-2,0.4-2.7,1.1c-0.7,0.7-1.1,1.6-1.1,2.6 c0,0.7,0.2,1.3,0.5,1.9c0.3,0.6,0.8,1,1.4,1.3s1.2,0.5,2,0.5c1.3,0,2.4-0.5,3.2-1.6l0.9,0.6c-0.4,0.6-1,1.2-1.7,1.5 c-0.7,0.4-1.6,0.5-2.5,0.5c-1.4,0-2.6-0.5-3.5-1.4s-1.4-2-1.4-3.3c0-0.9,0.2-1.7,0.7-2.4s1-1.3,1.8-1.8c0.8-0.4,1.6-0.6,2.6-0.6 c0.6,0,1.2,0.1,1.7,0.3c0.6,0.2,1,0.4,1.4,0.7S274.1,59.1,274.4,59.6z" class="st1"/><g><image style="overflow:visible" width="24" height="25" transform="matrix(1 0 0 1 274 48)" xlink:href="481F15BC.png"/><g><path d="M280.6,54.5h1.3l4,9.4l4.1-9.4h1.3l-5.3,12.2h-0.3L280.6,54.5z" class="st1"/></g></g><g><image style="overflow:visible" width="14" height="25" transform="matrix(1 0 0 1 287 48)" xlink:href="481F15BD.png"/><g><path d="M293.2,54.5h1.2v12.2h-1.2V54.5z" class="st1"/></g></g><g><image style="overflow:visible" width="21" height="26" transform="matrix(1 0 0 1 289 48)" xlink:href="481F15BB.png"/><g><path d="M296,64.5l1-0.6c0.7,1.3,1.6,2,2.5,2c0.4,0,0.8-0.1,1.2-0.3c0.4-0.2,0.6-0.4,0.8-0.8c0.2-0.3,0.3-0.7,0.3-1 c0-0.4-0.1-0.8-0.4-1.2c-0.4-0.5-1.1-1.2-2.1-2c-1-0.8-1.7-1.3-1.9-1.7c-0.4-0.6-0.6-1.2-0.6-1.9c0-0.5,0.1-1,0.4-1.5 s0.6-0.8,1.1-1c0.5-0.3,1-0.4,1.5-0.4c0.6,0,1.1,0.1,1.6,0.4c0.5,0.3,1,0.8,1.6,1.6l-1,0.8c-0.5-0.6-0.8-1-1.2-1.2 s-0.7-0.3-1.1-0.3c-0.5,0-0.9,0.1-1.2,0.4c-0.3,0.3-0.5,0.7-0.5,1.1c0,0.3,0.1,0.5,0.2,0.8c0.1,0.2,0.3,0.5,0.6,0.8 c0.2,0.2,0.7,0.6,1.6,1.2c1.1,0.8,1.8,1.5,2.2,2.1c0.4,0.6,0.6,1.2,0.6,1.8c0,0.9-0.3,1.7-1,2.3c-0.7,0.7-1.5,1-2.5,1 c-0.7,0-1.4-0.2-2-0.6C297,66.1,296.5,65.4,296,64.5z" class="st1"/></g></g><g><image style="overflow:visible" width="25" height="25" transform="matrix(1 0 0 1 298 48)" xlink:href="481F15C4.png"/><g><path d="M310.7,54.5l5.7,12.2H315l-1.9-4h-5.3l-1.9,4h-1.4l5.8-12.2H310.7z M310.5,57.1l-2.1,4.4h4.2L310.5,57.1z" class="st1"/></g></g></g></svg>