<?xml version="1.0" encoding="utf-8"?>
<!-- Generator: Adobe Illustrator 25.4.1, SVG Export Plug-In . SVG Version: 6.00 Build 0)  -->
<svg version="1.1" id="Calque_1" xmlns="http://www.w3.org/2000/svg" xmlns:xlink="http://www.w3.org/1999/xlink" x="0px" y="0px"
	 viewBox="0 0 800 800" style="enable-background:new 0 0 800 800;" xml:space="preserve">
<style type="text/css">
	.st0{fill:#FAFAFC;}
</style>
<g id="Design">
	<g>
		<path class="st0" d="M544.96,393.44l-26.6-42.95c0,0-15.04-26.6-47.66-8.57c0,0-22.34,14.17-6.01,37.79l54.09,74.72
			c0,0,18.04,25.32,43.37-0.45L800,175.78L544.96,393.44z"/>
		<path class="st0" d="M196.57,279.77c19.58,0,35.48-15.88,35.48-35.48c0-19.58-15.9-35.48-35.48-35.48s-35.48,15.9-35.48,35.48
			C161.11,263.89,176.99,279.77,196.57,279.77z"/>
		<path class="st0" d="M718.78,311.47l-40.57,47.47c5.66,15.9,8.78,32.99,8.78,50.81c0,83.8-68.2,152.01-152.02,152.01
			s-151.99-68.2-151.99-152.01s68.17-151.99,151.99-151.99c34.51,0,66.35,11.56,91.89,31.01l43.65-37.27
			c-36.44-31.25-83.78-50.15-135.55-50.15c-1.6,0-3.17-0.04-4.76,0h-36.55l0.52-0.56H300.92c-23.03,0-41.68,18.67-41.68,41.66
			c0,23.04,18.67,41.68,41.68,41.68l41.43,0.08c23,0,41.67,18.64,41.67,41.66c0,23.03-18.67,41.67-41.67,41.67l-190.07-0.08
			c-23.04,0-41.68,18.67-41.68,41.67c0,23,18.64,41.68,41.68,41.68l117.76-0.11c22.99,0,41.66,18.63,41.66,41.64
			c0,23.04-18.67,41.68-41.66,41.68L41.67,534.1C18.63,534.1,0,552.77,0,575.75c0,23.04,18.64,41.68,41.67,41.68h376.82
			c0.1,0.24,0.2,0.49,0.3,0.72l107.9,0.03c2.77,0.08,5.49,0,8.27,0c115.12,0,208.42-93.33,208.42-208.42
			C743.38,374.2,734.47,340.76,718.78,311.47z M361.07,460.96l-0.14,2.24l-0.32-0.49L361.07,460.96z"/>
		<path class="st0" d="M196.57,279.77c19.58,0,35.48-15.88,35.48-35.48c0-19.58-15.9-35.48-35.48-35.48s-35.48,15.9-35.48,35.48
			C161.11,263.89,176.99,279.77,196.57,279.77z"/>
	</g>
</g>
</svg>
