<?xml version="1.0" encoding="utf-8"?>
<!-- Generator: Adobe Illustrator 25.4.1, SVG Export Plug-In . SVG Version: 6.00 Build 0)  -->
<svg version="1.1" id="Calque_1" xmlns="http://www.w3.org/2000/svg" xmlns:xlink="http://www.w3.org/1999/xlink" x="0px" y="0px"
	 viewBox="0 0 311.8 70.9" style="enable-background:new 0 0 311.8 70.9;" xml:space="preserve">
<style type="text/css">
	.st0{fill:#FEC900;}
	.st1{fill:#F8AD00;}
	.st2{display:none;}
	.st3{display:inline;fill:#F8AD00;}
	.st4{fill:#FCFCFC;}
</style>
<g>
	<path class="st0" d="M110.7,60.3l-4.3-4.2l0,0l0,0c-0.1-0.1-0.1-0.2-0.1-0.2c0,0.1,0.1,0.2,0.1,0.4L110.7,60.3
		c0.1,0.1,0.2,0.4,0.2,0.5l0,0C110.9,60.7,110.9,60.4,110.7,60.3z"/>
	<path class="st0" d="M109.8,67c0,0.2,0.2,0.5,0.6,0.5c-0.1,0-0.4-0.1-0.4-0.2C110,67.2,110,67.1,109.8,67z"/>
	<path class="st0" d="M126.4,55.6l-5.4-0.8c-0.1,0-0.2-0.1-0.4-0.2c0,0,0-0.1-0.1-0.1v-0.1H120c-0.2,0-0.4-0.1-0.5-0.4l-2.5-5
		c0,0-0.1,0.1-0.1,0.2l-2.6,5.4c-0.1,0.2-0.2,0.2-0.5,0.4l-6,0.8c-0.5,0.1-0.7,0.7-0.4,1.1l4.3,4.2l0,0l0,0c0,0,0.1,0.1,0.1,0.2l0,0
		c0,0,0,0,0,0.1s0,0.1,0,0.2l-1,5.8l5.1-2.6c0.2-0.1,0.4-0.1,0.6,0l1,0.5l0,0l0,0h0.1l4.3,2.3l0,0l0,0l0,0l0,0
		c0.4,0.1,0.8-0.2,0.7-0.6l-1-5.8c0-0.2,0-0.4,0.2-0.5l4.3-4.2C126.4,56,126.4,55.8,126.4,55.6L126.4,55.6L126.4,55.6z"/>
	<path class="st0" d="M121.9,67.5L121.9,67.5l-3.6-1.9L121.9,67.5z"/>
	<polygon class="st0" points="117.5,65.1 118.3,65.6 117.6,65.1 	"/>
	<path class="st1" d="M126.1,55.3c-0.1,0-0.1-0.1-0.2-0.1l-5.4-0.8l5.4,0.8C126,55.2,126.1,55.2,126.1,55.3z"/>
	<path class="st1" d="M126.4,55.6L126.4,55.6L126.4,55.6c0-0.1-0.1-0.2-0.1-0.4C126.3,55.3,126.4,55.4,126.4,55.6z"/>
	<path class="st1" d="M126.4,55.6L126.4,55.6L126.4,55.6z"/>
	<path class="st1" d="M120.6,54.5C120.7,54.5,120.7,54.6,120.6,54.5c0.1,0.2,0.2,0.2,0.5,0.4l5.4,0.8c0-0.1-0.1-0.2-0.2-0.4l0,0
		c-0.1-0.1-0.1-0.1-0.2-0.1L120.6,54.5L120.6,54.5L120.6,54.5L120.6,54.5z"/>
	<path class="st1" d="M120.7,54.6C120.7,54.6,120.6,54.5,120.7,54.6l-0.1-0.2l0,0L120.7,54.6C120.6,54.5,120.7,54.5,120.7,54.6z"/>
	<path class="st1" d="M122,67.5L122,67.5L122,67.5L122,67.5L122,67.5L122,67.5z"/>
	<path class="st1" d="M122,67.5L122,67.5L122,67.5L122,67.5L122,67.5z"/>
	<path class="st1" d="M117.6,65.1l4.4,2.3l0,0l0,0l0,0L117.6,65.1L117.6,65.1z"/>
	<path class="st1" d="M117.7,65.1L117.7,65.1L117.7,65.1C117.6,65.1,117.7,65.1,117.7,65.1l4.3,2.3l0,0L117.7,65.1z"/>
	<path class="st1" d="M110.9,67.3l-0.2,0.1c-0.1,0-0.2,0.1-0.4,0.1c0.1,0,0.2,0,0.4,0L110.9,67.3z"/>
	<path class="st1" d="M117.1,48.9l-0.2-0.4L117.1,48.9L117.1,48.9z"/>
	<path class="st1" d="M116.9,48.5c-0.1-0.2-0.4-0.4-0.6-0.4C116.5,48.3,116.7,48.4,116.9,48.5z"/>
	<path class="st1" d="M110.9,60.9L110.9,60.9l-1,5.8c0,0.1,0,0.2,0,0.2c0-0.1,0-0.1,0-0.2L110.9,60.9z"/>
	<path class="st1" d="M111.9,61c0-0.1-0.1-0.1-0.1-0.2l-4.2-4.2l0,0l0,0c-0.4-0.4-0.1-1,0.4-1.1l6-0.8c0.2,0,0.4-0.1,0.5-0.4L117,49
		c0-0.1,0.1-0.1,0.1-0.2l0,0l0,0l0,0l0,0l-0.2-0.2c-0.1-0.2-0.4-0.4-0.6-0.4s-0.5,0.1-0.6,0.4l-2.6,5.4c-0.1,0.2-0.2,0.2-0.5,0.4
		l-6,0.8c-0.4,0-0.6,0.4-0.5,0.7c0-0.4,0.1-0.7,0.5-0.7l6-0.8c0.2,0,0.4-0.1,0.5-0.4l2.6-5.4c0.1-0.2,0.4-0.4,0.6-0.4
		c-0.2,0-0.5,0.1-0.6,0.4l-2.6,5.4c-0.1,0.2-0.2,0.2-0.5,0.4l-6,0.8c-0.5,0.1-0.7,0.7-0.4,1.1l4.3,4.2l0,0l0,0
		c0.1,0.1,0.2,0.4,0.2,0.5l-1,5.8c0,0.1,0,0.4,0.1,0.5c0.1,0.1,0.2,0.2,0.4,0.2s0.2,0,0.4-0.1l0.2-0.1l1-5.8
		C111.9,61.2,111.9,61.2,111.9,61C112,61.2,112,61.2,111.9,61C112,61.2,111.9,61,111.9,61z"/>
	<path class="st1" d="M109.8,67c0,0.1,0,0.1,0.1,0.2c-0.1-0.1-0.1-0.2-0.1-0.5C109.8,66.9,109.8,67,109.8,67z"/>
	<path class="st1" d="M109.8,66.8l1-5.8c0-0.2,0-0.4-0.2-0.5l0,0c0.1,0.1,0.2,0.4,0.2,0.5l0,0l0,0L109.8,66.8z"/>
	<path class="st1" d="M106.5,56.2c-0.4-0.4-0.1-1,0.4-1l6-0.8c0.2,0,0.4-0.1,0.5-0.4l2.6-5.4c0.1-0.2,0.4-0.4,0.6-0.4
		c-0.2,0-0.5,0.1-0.6,0.4l-2.6,5.4c-0.1,0.2-0.2,0.2-0.5,0.4l-6,0.8c-0.4,0-0.6,0.4-0.5,0.7C106.3,55.9,106.4,56,106.5,56.2
		L106.5,56.2z"/>
	<path class="st1" d="M112,61.2L112,61.2L112,61.2z"/>
	<path class="st1" d="M111.7,60.9L111.7,60.9c0,0,0.1,0.1,0.1,0.2C111.9,61,111.9,60.9,111.7,60.9z"/>
	<path class="st1" d="M116.9,49.1l-2.6,5.4c-0.1,0.2-0.2,0.2-0.5,0.4l-6,0.8c-0.5,0.1-0.7,0.7-0.4,1.1l0,0c-0.4-0.4-0.1-1,0.4-1.1
		l6-0.8c0.2,0,0.4-0.1,0.5-0.4L116.9,49.1C116.9,49,117,49,116.9,49.1L116.9,49.1C117,49,117,49,116.9,49.1z"/>
	<path class="st1" d="M117.1,48.9l-0.2-0.4L117.1,48.9z"/>
	<path class="st0" d="M149.7,55.2l-6-0.8c-0.2,0-0.4-0.1-0.5-0.4l-2.6-5.5c-0.1-0.2-0.4-0.4-0.6-0.4c0.2,0,0.4,0.1,0.5,0.4l0.1,0.4
		l0,0l0,0c-0.1,0-0.1,0.1-0.2,0.2l-2.6,5.4c-0.1,0.2-0.2,0.2-0.5,0.4l-6,0.8c-0.2,0-0.4,0.2-0.5,0.4c0,0.2,0,0.5,0.1,0.6l4.3,4.2
		c0.1,0.1,0.1,0.1,0.1,0.2v0.1v0.1l0,0l0,0l-1,5.8l-0.2,0.1c0,0,0,0-0.1,0c0.1,0,0.2,0,0.2,0l5.4-2.7c0.2-0.1,0.4-0.1,0.6,0l5.4,2.9
		c0.5,0.2,1-0.1,0.8-0.6l-1-5.8c0-0.2,0-0.4,0.2-0.5l4.3-4.2C150.3,55.8,150.2,55.2,149.7,55.2z M150,55.6l-5.4-0.8
		c-0.2,0-0.4-0.1-0.5-0.4v-0.1l5.4,0.8C149.7,55.2,149.8,55.4,150,55.6L150,55.6L150,55.6z"/>
	<path class="st1" d="M149.5,55.2l-5.4-0.8v0.1c0.1,0.2,0.2,0.2,0.5,0.4l5.4,0.7C149.8,55.3,149.7,55.2,149.5,55.2z"/>
	<path class="st1" d="M150,55.6L150,55.6l-5.4-0.8L150,55.6z"/>
	<path class="st1" d="M141,65.1l4.4,2.3c0,0,0.1,0,0.2,0l-4.4-2.4C141.1,65.1,141.1,65.1,141,65.1z"/>
	<path class="st1" d="M140,48.3L140,48.3L140,48.3z"/>
	<path class="st1" d="M133.6,66.8l1-5.8c0-0.2,0-0.4-0.2-0.5l-4.3-4.2c-0.4-0.4-0.1-1,0.4-1l6-0.8c0.2,0,0.4-0.1,0.5-0.4l2.6-5.4
		c0.1-0.2,0.2-0.2,0.5-0.4c-0.2,0-0.5,0-0.6,0.4l-2.6,5.4c-0.1,0.1-0.2,0.2-0.5,0.4l-6,0.8c-0.5,0.1-0.7,0.7-0.4,1.1l4.3,4.2
		c0.1,0.1,0.2,0.4,0.2,0.5L133.6,66.8c-0.2,0.6,0.1,0.8,0.6,0.8C133.8,67.3,133.5,67.1,133.6,66.8z"/>
	<path class="st1" d="M140,48.3L140,48.3L140,48.3z"/>
	<path class="st1" d="M134.2,67.3l0.2-0.1l1-5.8v-0.1c0-0.1,0-0.1,0-0.1c0-0.1-0.1-0.1-0.1-0.2l-4.3-4.2c-0.2-0.1-0.2-0.5-0.1-0.6
		c0-0.2,0.2-0.4,0.5-0.5l6-0.8c0.2,0,0.4-0.1,0.5-0.4l2.6-5.4c0-0.1,0.1-0.1,0.1-0.2l-0.1-0.4c-0.1-0.2-0.2-0.2-0.4-0.4
		c-0.1,0-0.4,0.1-0.4,0.4l-2.6,5.4c-0.1,0.2-0.2,0.2-0.5,0.4l-6,0.8c-0.5,0.1-0.7,0.7-0.4,1.1l4.3,4.2c0.1,0.1,0.2,0.4,0.2,0.5
		l-1,5.8C133.9,67,134.1,67.2,134.2,67.3C134.1,67.5,134.1,67.5,134.2,67.3c-0.1,0-0.1,0-0.2,0C134.1,67.3,134.2,67.3,134.2,67.3z"
		/>
	<path class="st1" d="M134.5,67.3l1-5.8l0,0L134.5,67.3l-0.2,0.1c-0.1,0-0.1,0-0.2,0h0.1c0,0,0,0,0.1,0L134.5,67.3z"/>
	<path class="st1" d="M135.4,61.2C135.4,61.3,135.4,61.3,135.4,61.2C135.4,61.3,135.4,61.2,135.4,61.2z"/>
	<path class="st1" d="M137.7,54.5c-0.1,0.2-0.2,0.2-0.5,0.4l-6,0.8c-0.2,0-0.5,0.2-0.5,0.5c0.1-0.2,0.2-0.4,0.5-0.4l6-0.8
		C137.5,54.8,137.7,54.7,137.7,54.5l2.6-5.4c0-0.1,0.1-0.1,0.2-0.2l0,0c0,0-0.1,0.1-0.1,0.2L137.7,54.5z"/>
	<path class="st1" d="M134.5,60.3c0.1,0.1,0.2,0.4,0.2,0.5C134.7,60.7,134.6,60.4,134.5,60.3z"/>
	<path class="st1" d="M139.6,48.7L137,54c-0.1,0.2-0.2,0.2-0.5,0.4l-6,0.8l6-0.8c0.2,0,0.4-0.1,0.5-0.4L139.6,48.7
		c0.1-0.2,0.2-0.2,0.5-0.4l0,0l0,0C139.8,48.3,139.6,48.4,139.6,48.7z"/>
	<path class="st0" d="M173.4,55.2l-6-0.8c-0.2,0-0.4-0.1-0.5-0.4l-2.6-5.4c-0.1-0.2-0.4-0.4-0.6-0.4c0.2,0,0.4,0.1,0.5,0.4l0.1,0.4
		l0,0l0,0c-0.1,0-0.1,0.1-0.2,0.2l-2.6,5.4c-0.1,0.2-0.2,0.2-0.5,0.4l-6,0.8c-0.4,0-0.6,0.4-0.5,0.7c0,0.1,0.1,0.2,0.1,0.2l4.3,4.2
		c0.1,0.1,0.1,0.1,0.1,0.2c0,0.1,0,0.2,0,0.4l-1,5.8l-0.2,0.1h-0.1c0.1,0,0.2,0,0.2,0l5.4-2.7c0.2-0.1,0.4-0.1,0.6,0l5.4,2.9
		c0.5,0.2,1-0.1,0.8-0.6l-1-5.8c0-0.2,0-0.4,0.2-0.5l4.3-4.2C174.1,55.8,173.9,55.2,173.4,55.2z M173.8,55.6l-5.4-0.8
		c0,0-0.1,0-0.1-0.1h-0.1c-0.1-0.1-0.1-0.1-0.2-0.2v-0.1l0,0l0,0l5.4,0.8C173.5,55.2,173.8,55.4,173.8,55.6L173.8,55.6L173.8,55.6z"
		/>
	<path class="st1" d="M173.3,55.2l-5.4-0.8v0.1c0,0.1,0.1,0.1,0.2,0.2h0.1l0.1,0.1l5.4,0.7C173.7,55.3,173.5,55.2,173.3,55.2z"/>
	<path class="st1" d="M168.3,54.7C168.3,54.7,168.4,54.7,168.3,54.7l5.5,1l0,0L168.3,54.7C168.3,54.8,168.3,54.7,168.3,54.7z"/>
	<path class="st1" d="M167.9,54.4L167.9,54.4L167.9,54.4c0.1,0.2,0.1,0.2,0.2,0.4C168.1,54.6,167.9,54.6,167.9,54.4L167.9,54.4z"/>
	<path class="st1" d="M164.8,65.1l4.4,2.3c0,0,0.1,0,0.2,0l-4.4-2.4C165,65.1,165,65.1,164.8,65.1z"/>
	<path class="st1" d="M157.3,66.8l1-5.8c0-0.2,0-0.4-0.2-0.5l-4.3-4.2c-0.4-0.4-0.1-1,0.4-1l6-0.8c0.2,0,0.4-0.1,0.5-0.4l2.6-5.4
		c0.1-0.2,0.2-0.2,0.5-0.4c-0.2,0-0.5,0.1-0.6,0.4l-2.6,5.4c-0.1,0.2-0.2,0.2-0.5,0.4l-6,0.8c-0.5,0.1-0.7,0.7-0.4,1.1l4.3,4.2
		c0.1,0.1,0.2,0.4,0.2,0.5L157.3,66.8c-0.2,0.5,0.1,0.8,0.5,0.8C157.6,67.3,157.3,67.1,157.3,66.8z"/>
	<path class="st1" d="M158.1,67.3l0.2-0.1l1-5.8c0-0.1,0-0.2,0-0.2s-0.1-0.1-0.1-0.2l-4.3-4.2c-0.1-0.1-0.1-0.2-0.1-0.4
		c-0.1-0.4,0.1-0.7,0.5-0.7l6-0.8c0.2,0,0.4-0.1,0.5-0.4l2.6-5.4c0-0.1,0.1-0.1,0.2-0.2l-0.1-0.2c-0.1-0.2-0.2-0.2-0.5-0.4
		c-0.2,0-0.4,0.1-0.5,0.4l-2.6,5.4c-0.1,0.2-0.2,0.2-0.5,0.4l-6,0.8c-0.5,0-0.7,0.7-0.4,1l4.3,4.2c0.1,0.1,0.2,0.4,0.2,0.5l-1,5.8
		C157.6,67,157.8,67.2,158.1,67.3C157.9,67.5,157.9,67.5,158.1,67.3c-0.1,0-0.2,0-0.2,0C157.9,67.5,158.1,67.5,158.1,67.3z"/>
	<path class="st1" d="M158.3,67.3l1-5.8c0-0.1,0-0.2,0-0.4c0,0.1,0,0.2,0,0.2L158.3,67.3h-0.2c-0.1,0-0.1,0-0.2,0c0,0,0,0,0.1,0h0.1
		H158.3z"/>
	<path class="st1" d="M161.5,54.5c-0.1,0.2-0.2,0.2-0.5,0.4l-6,0.8c-0.4,0-0.6,0.5-0.5,0.7c0-0.4,0.1-0.7,0.5-0.7l6-0.8
		C161.3,54.7,161.5,54.6,161.5,54.5l2.6-5.4c0-0.1,0.1-0.1,0.2-0.2l0,0c-0.1,0-0.1,0.1-0.2,0.2L161.5,54.5z"/>
	<path class="st0" d="M197.2,55.2l-6-0.8c-0.2,0-0.4-0.1-0.5-0.4l-2.6-5.4c-0.1-0.4-0.4-0.4-0.6-0.4c0.2,0,0.4,0.1,0.5,0.4l0,0l0,0
		l0.1,0.4c-0.1,0-0.1,0.1-0.2,0.2l-2.6,5.4c-0.1,0.2-0.2,0.2-0.5,0.4l-6,0.8c-0.4,0-0.6,0.4-0.5,0.7c0,0.1,0.1,0.2,0.1,0.2l4.3,4.2
		c0.1,0.1,0.1,0.1,0.1,0.2c0,0.1,0,0.2,0,0.4l-1,5.8h-0.1l5.2-2.7c0.2-0.1,0.4-0.1,0.6,0l5.4,2.9c0.5,0.2,1-0.1,0.8-0.6l-1-5.8
		c0-0.2,0-0.4,0.2-0.5l4.3-4.2C197.8,55.8,197.7,55.2,197.2,55.2z M197.6,55.6l-5.4-0.8c-0.2,0-0.4-0.1-0.5-0.4v-0.1l5.4,0.8
		c0.2,0,0.2,0.1,0.4,0.2C197.6,55.4,197.6,55.6,197.6,55.6L197.6,55.6L197.6,55.6z"/>
	<path class="st1" d="M197.1,55.2l-5.4-0.8v0.1c0.1,0.2,0.2,0.2,0.5,0.4l5.4,0.7c0-0.1,0-0.1-0.1-0.2
		C197.3,55.3,197.2,55.2,197.1,55.2z"/>
	<path class="st1" d="M197.6,55.6L197.6,55.6l-5.4-0.8L197.6,55.6z"/>
	<path class="st1" d="M197.5,55.4c-0.1-0.1-0.2-0.2-0.4-0.2C197.2,55.2,197.3,55.3,197.5,55.4z"/>
	<path class="st1" d="M188.7,65.1l4.4,2.3c0,0,0.1,0,0.2,0l-4.4-2.4C188.8,65.1,188.8,65.1,188.7,65.1z"/>
	<path class="st1" d="M181.2,66.8l1-5.8c0-0.2,0-0.4-0.2-0.5l-4.3-4.2c-0.4-0.4-0.1-1,0.4-1l6-0.8c0.2,0,0.4-0.1,0.5-0.4l2.6-5.4
		l0,0c0-0.1,0.1-0.1,0.2-0.2c0.1,0,0.2-0.1,0.2-0.1c-0.2,0-0.5,0.1-0.6,0.4l-2.6,5.4c-0.1,0.2-0.2,0.2-0.5,0.4l-6,0.8
		c-0.5,0.1-0.7,0.7-0.4,1.1l4.3,4.2c0.1,0.1,0.2,0.4,0.2,0.5L181.2,66.8c-0.1,0.4,0.1,0.7,0.5,0.7C181.4,67.5,181,67.1,181.2,66.8z"
		/>
	<path class="st1" d="M181.9,67.3c-0.1,0-0.1,0-0.2,0C181.7,67.5,181.7,67.5,181.9,67.3L181.9,67.3l0.2-0.1l1-5.8c0-0.1,0-0.2,0-0.2
		s-0.1-0.1-0.1-0.2l-4.3-4.2c-0.1-0.1-0.1-0.2-0.1-0.4c-0.1-0.4,0.1-0.7,0.5-0.7l6-0.8c0.2,0,0.4-0.1,0.5-0.4l2.6-5.4
		c0-0.1,0.1-0.1,0.2-0.2l-0.1-0.2c-0.1-0.2-0.2-0.4-0.5-0.4c-0.1,0-0.2,0-0.2,0.1c-0.1,0-0.1,0.1-0.2,0.2l0,0l-2.6,5.4
		c-0.1,0.2-0.2,0.2-0.5,0.4l-6,0.8c-0.5,0.1-0.7,0.7-0.4,1.1l4.3,4.2c0.1,0.1,0.2,0.4,0.2,0.5l-1,5.8
		C181.3,67.1,181.6,67.3,181.9,67.3C181.7,67.5,181.9,67.5,181.9,67.3h0.2l0,0C182,67.3,181.9,67.3,181.9,67.3z"/>
	<path class="st1" d="M188.1,49.1l-2.6,5.4c-0.1,0.2-0.2,0.2-0.5,0.4l-6,0.8c-0.4,0-0.6,0.5-0.5,0.7c0-0.4,0.1-0.7,0.5-0.7l6-0.8
		c0.2,0,0.4-0.1,0.5-0.4L188.1,49.1c0-0.1,0.1-0.1,0.2-0.2l-0.1-0.4l0,0l0.1,0.2C188.2,48.9,188.1,49,188.1,49.1z"/>
	<path class="st1" d="M181.9,67.3c-0.1,0-0.1,0-0.2,0C181.7,67.5,181.7,67.5,181.9,67.3z"/>
	<path class="st1" d="M183.2,61.4c0-0.1,0-0.2,0-0.4C183.2,61.2,183.2,61.3,183.2,61.4l-1.1,5.8l-0.2,0.1l0,0h0.1l0,0h0.1
		L183.2,61.4z"/>
	<path class="st1" d="M187.1,48.5c0-0.1,0.1-0.1,0.2-0.2C187.2,48.4,187.1,48.5,187.1,48.5z"/>
	<path class="st1" d="M182,60.3c0.1,0.1,0.2,0.4,0.2,0.5C182.2,60.7,182.1,60.4,182,60.3z"/>
	<path class="st0" d="M215.8,54.7L215.8,54.7c-0.1-0.1-0.1-0.1-0.2-0.2v-0.1l0,0l0,0l-0.6-0.1c-0.2,0-0.4-0.1-0.5-0.4l-2.4-5
		c0,0-0.1,0.1-0.1,0.2l-2.6,5.4c-0.1,0.2-0.2,0.2-0.5,0.4l-6,0.8c-0.5,0.1-0.7,0.7-0.4,1.1l4.3,4.2l0,0l0,0c0.1,0.1,0.2,0.4,0.2,0.5
		l-1,5.8l5.1-2.6c0.2-0.1,0.4-0.1,0.6,0l1,0.5h0.1l0,0l4.3,2.3l0,0l0,0c0.4,0.1,0.8-0.2,0.8-0.6l-1-5.8c0-0.2,0-0.4,0.2-0.5l4.3-4.2
		c0.2-0.1,0.2-0.4,0.1-0.6l-5.4-0.8C215.9,54.8,215.9,54.7,215.8,54.7z"/>
	<path class="st1" d="M221.3,55.3c-0.1-0.1-0.2-0.1-0.4-0.1l-5.4-0.8v0.1c0,0.1,0.1,0.1,0.2,0.2l0,0c0.1,0.1,0.1,0.1,0.2,0.1
		l5.4,0.8l0,0C221.4,55.6,221.4,55.4,221.3,55.3L221.3,55.3z"/>
	<path class="st1" d="M216,54.8c-0.1,0-0.2,0-0.2-0.1C215.9,54.7,215.9,54.8,216,54.8z"/>
	<path class="st1" d="M215.6,54.5c0,0.1,0.1,0.1,0.2,0.2C215.7,54.6,215.7,54.6,215.6,54.5L215.6,54.5L215.6,54.5L215.6,54.5z"/>
	<path class="st1" d="M217,67.5c0,0,0.1,0,0.2,0H217L217,67.5z"/>
	<path class="st1" d="M212.6,65.1L212.6,65.1l4.3,2.3L212.6,65.1l4.3,2.3c0,0,0,0,0.1,0L212.6,65.1
		C212.7,65.1,212.7,65.1,212.6,65.1z"/>
	<path class="st1" d="M212.7,65.1L212.7,65.1L212.7,65.1l4.3,2.3l0,0L212.7,65.1z"/>
	<path class="st1" d="M207,61.4c0-0.2,0-0.4-0.2-0.5l-4.2-4.3l0,0l0,0c-0.4-0.4-0.1-1,0.4-1.1l6-0.8c0.2,0,0.4-0.1,0.5-0.4L212,49
		c0-0.1,0.1-0.1,0.1-0.2l-0.1-0.4l0.1,0.4l0,0l0,0l0,0l-0.1-0.4c-0.1-0.2-0.4-0.4-0.6-0.4c-0.2,0-0.5,0.2-0.6,0.5l-2.6,5.4
		c-0.1,0.2-0.2,0.4-0.5,0.4l-6,0.8c-0.5,0.1-0.7,0.7-0.4,1.1l4.3,4.2c0.1,0.1,0.1,0.1,0.1,0.2c0,0.1,0,0.2,0,0.2l-1,5.8
		c-0.1,0.5,0.5,0.8,0.8,0.6l0.2-0.1l0,0l0,0L207,61.4z M205,66.8l1-5.8c0-0.1,0-0.2,0-0.2c0,0.1,0,0.2,0,0.2L205,66.8z"/>
	<path class="st1" d="M211.9,49.1l-2.6,5.4c-0.1,0.2-0.2,0.2-0.5,0.4l-6,0.8c-0.5,0.1-0.7,0.7-0.4,1.1l0,0c-0.4-0.4-0.1-1,0.4-1.1
		l6-0.8c0.2,0,0.4-0.1,0.5-0.4L211.9,49.1c0-0.1,0.1-0.1,0.2-0.2l0,0C212,48.9,212,49,211.9,49.1z"/>
	<polygon class="st1" points="211.9,48.5 212.1,48.9 212.1,48.9 	"/>
	<path class="st1" d="M206.7,60.9L206.7,60.9c0.1,0.1,0.2,0.4,0.1,0.5l-1,5.8l0,0l1-5.8C207,61.2,207,61,206.7,60.9z"/>
	<path class="st1" d="M208.2,54c-0.1,0.2-0.2,0.2-0.5,0.4C207.9,54.3,208.1,54.1,208.2,54z"/>
</g>
<g class="st2">
	<path class="st3" d="M282.6,42.6c-0.7-0.4-1.3-1-1.7-1.7s-0.7-1.6-0.7-2.7l0,0h3.1l0,0c0.1,0.6,0.2,1.1,0.6,1.4s0.7,0.5,1.2,0.5
		s1-0.2,1.3-0.5c0.3-0.4,0.5-0.9,0.5-1.5v-1.4c0-0.7-0.1-1.2-0.4-1.5s-0.6-0.5-1.1-0.5c-0.4,0-0.8,0.1-1.1,0.3s-0.5,0.5-0.7,1h-2.9
		v-9.6h8.9v3h-5.8v2.9c0.2-0.2,0.6-0.4,1-0.5s0.8-0.2,1.2-0.2c0.9,0,1.6,0.2,2.2,0.6c0.6,0.4,1.1,1,1.4,1.7c0.3,0.8,0.5,1.7,0.5,2.7
		v1.5c0,1.1-0.2,2-0.6,2.7c-0.4,0.8-0.9,1.3-1.7,1.7c-0.7,0.4-1.6,0.6-2.6,0.6C284.2,43.1,283.4,43,282.6,42.6z"/>
	<path class="st3" d="M293.7,46.1h-3l7.4-21.7h3L293.7,46.1z"/>
	<path class="st3" d="M304.2,42.6c-0.7-0.4-1.3-1-1.7-1.7s-0.7-1.6-0.7-2.7l0,0h3.1l0,0c0.1,0.6,0.2,1.1,0.6,1.4s0.7,0.5,1.2,0.5
		s1-0.2,1.3-0.5c0.3-0.4,0.5-0.9,0.5-1.5v-1.4c0-0.7-0.1-1.2-0.4-1.5s-0.6-0.5-1.1-0.5c-0.4,0-0.8,0.1-1.1,0.3s-0.5,0.5-0.7,1h-2.9
		v-9.6h8.9v3h-5.8v2.9c0.2-0.2,0.6-0.4,1-0.5s0.8-0.2,1.2-0.2c0.9,0,1.6,0.2,2.2,0.6c0.6,0.4,1.1,1,1.4,1.7c0.3,0.8,0.5,1.7,0.5,2.7
		v1.5c0,1.1-0.2,2-0.6,2.7c-0.4,0.8-0.9,1.3-1.7,1.7c-0.7,0.4-1.6,0.6-2.6,0.6C305.7,43.1,304.9,43,304.2,42.6z"/>
</g>
<g>
	<path class="st4" d="M4.3,17.7c-0.7-0.4-1.3-1-1.7-1.8C2.2,15.2,2,14.3,2,13.3V9.4c0-1,0.2-1.9,0.6-2.6C3,6,3.5,5.4,4.3,5
		C5,4.6,5.8,4.4,6.8,4.4c0.9,0,1.8,0.2,2.5,0.6C10,5.4,10.6,6,11,6.8c0.4,0.8,0.6,1.6,0.6,2.6v3.9c0,1-0.2,1.9-0.6,2.6
		c-0.4,0.8-1,1.3-1.7,1.8c-0.7,0.4-1.6,0.6-2.5,0.6C5.8,18.3,5,18.1,4.3,17.7z M8.3,16c0.4-0.3,0.8-0.6,1-1.1c0.2-0.5,0.4-1,0.4-1.6
		v-4c0-0.6-0.1-1.2-0.4-1.6C9,7.3,8.7,6.9,8.3,6.7C7.8,6.4,7.3,6.3,6.8,6.3c-0.6,0-1.1,0.1-1.5,0.4c-0.4,0.3-0.8,0.6-1,1.1
		c-0.2,0.5-0.4,1-0.4,1.6v4c0,0.6,0.1,1.2,0.4,1.6c0.2,0.5,0.6,0.8,1,1.1c0.4,0.3,0.9,0.4,1.5,0.4C7.3,16.4,7.8,16.3,8.3,16z"/>
	<path class="st4" d="M14.5,4.5h1.9v13.6h-1.9V4.5z M17.2,17.9c-0.4-0.3-0.8-0.7-1-1.2l0.1-2c0,0.4,0.1,0.8,0.2,1.1
		c0.1,0.3,0.4,0.5,0.7,0.7s0.6,0.2,1,0.2c0.6,0,1.1-0.2,1.5-0.6c0.3-0.4,0.5-0.9,0.5-1.6v-2.1c0-0.7-0.2-1.3-0.5-1.7
		c-0.3-0.4-0.8-0.6-1.5-0.6c-0.4,0-0.8,0.1-1,0.2c-0.3,0.1-0.5,0.4-0.7,0.7c-0.2,0.3-0.2,0.6-0.2,1l-0.2-1.9c0.3-0.6,0.7-1,1.2-1.3
		c0.5-0.3,1-0.5,1.6-0.5c0.7,0,1.3,0.2,1.8,0.5c0.5,0.3,0.9,0.8,1.1,1.4c0.3,0.6,0.4,1.3,0.4,2.1v2.1c0,0.8-0.1,1.5-0.4,2.1
		c-0.3,0.6-0.6,1-1.2,1.3c-0.5,0.3-1.1,0.5-1.8,0.5C18.2,18.3,17.7,18.2,17.2,17.9z"/>
	<path class="st4" d="M24.2,8.4h4.4v1.7h-4.4V8.4z M25.7,17.6c-0.4-0.4-0.5-1.1-0.5-1.9v-10h1.9v10c0,0.2,0,0.4,0.1,0.5
		c0.1,0.1,0.2,0.2,0.4,0.2h0.9v1.8h-1.1C26.6,18.2,26.1,18,25.7,17.6z"/>
	<path class="st4" d="M32.8,17.8c-0.6-0.3-1.1-0.8-1.5-1.5c-0.3-0.7-0.5-1.4-0.5-2.4v-1.1c0-1,0.2-1.8,0.5-2.5
		c0.3-0.7,0.8-1.2,1.4-1.6c0.6-0.4,1.3-0.5,2.2-0.5c0.8,0,1.5,0.2,2.1,0.6c0.6,0.4,1,1,1.3,1.8c0.3,0.8,0.5,1.7,0.5,2.8v0.6h-6.6
		v-1.5H37c-0.1-0.8-0.3-1.4-0.6-1.9C36,10.2,35.6,10,35,10c-0.7,0-1.3,0.2-1.7,0.7c-0.4,0.5-0.6,1.1-0.6,2V14c0,0.8,0.2,1.4,0.6,1.9
		c0.4,0.4,1,0.6,1.8,0.6c0.4,0,0.8-0.1,1.2-0.2c0.4-0.2,0.7-0.4,1-0.7l1.3,1.3c-0.5,0.5-1,0.8-1.6,1.1c-0.6,0.3-1.2,0.4-1.8,0.4
		C34.2,18.3,33.5,18.1,32.8,17.8z"/>
	<path class="st4" d="M41.4,8.4h1.9v9.7h-1.9V8.4z M47.4,12.3c0-0.7-0.2-1.2-0.5-1.6s-0.9-0.6-1.5-0.6c-0.6,0-1.1,0.2-1.4,0.5
		c-0.3,0.3-0.5,0.8-0.5,1.4l-0.2-1.9c0.3-0.6,0.7-1,1.2-1.4c0.5-0.3,1-0.5,1.6-0.5c1.1,0,1.9,0.3,2.4,1c0.6,0.7,0.9,1.7,0.9,2.9v5.9
		h-1.9V12.3z"/>
	<path class="st4" d="M53.8,17.8c-0.6-0.3-1.1-0.8-1.5-1.5c-0.3-0.7-0.5-1.4-0.5-2.4v-1.1c0-1,0.2-1.8,0.5-2.5
		c0.3-0.7,0.8-1.2,1.4-1.6c0.6-0.4,1.3-0.5,2.2-0.5c0.8,0,1.5,0.2,2.1,0.6c0.6,0.4,1,1,1.3,1.8c0.3,0.8,0.5,1.7,0.5,2.8v0.6h-6.6
		v-1.5H58c-0.1-0.8-0.3-1.4-0.6-1.9C57,10.2,56.6,10,56,10c-0.7,0-1.3,0.2-1.7,0.7c-0.4,0.5-0.6,1.1-0.6,2V14c0,0.8,0.2,1.4,0.6,1.9
		c0.4,0.4,1,0.6,1.8,0.6c0.4,0,0.8-0.1,1.2-0.2c0.4-0.2,0.7-0.4,1-0.7l1.3,1.3c-0.5,0.5-1,0.8-1.6,1.1c-0.6,0.3-1.2,0.4-1.8,0.4
		C55.2,18.3,54.5,18.1,53.8,17.8z"/>
	<path class="st4" d="M69.2,10.1l-4.7,6.3h4.9v1.8h-7.2v-1.6l4.8-6.3h-4.7V8.4h6.9V10.1z"/>
	<path class="st4" d="M82.8,8.4h2l-3.7,9.7h-1.4l-3.7-9.7h2l2.4,6.9L82.8,8.4z"/>
	<path class="st4" d="M88.1,17.8c-0.6-0.3-1.1-0.8-1.4-1.4c-0.3-0.6-0.5-1.4-0.5-2.3v-1.6c0-0.9,0.2-1.6,0.5-2.3
		c0.3-0.6,0.8-1.1,1.4-1.4c0.6-0.3,1.3-0.5,2.2-0.5c0.8,0,1.6,0.2,2.2,0.5c0.6,0.3,1.1,0.8,1.4,1.4c0.3,0.6,0.5,1.4,0.5,2.3v1.6
		c0,0.9-0.2,1.6-0.5,2.3c-0.3,0.6-0.8,1.1-1.4,1.4c-0.6,0.3-1.3,0.5-2.2,0.5C89.4,18.3,88.7,18.1,88.1,17.8z M91.8,15.9
		c0.4-0.4,0.5-1,0.5-1.8v-1.6c0-0.8-0.2-1.3-0.5-1.8c-0.4-0.4-0.9-0.6-1.6-0.6s-1.2,0.2-1.6,0.6c-0.4,0.4-0.5,1-0.5,1.8v1.6
		c0,0.8,0.2,1.3,0.5,1.8c0.4,0.4,0.9,0.6,1.6,0.6S91.4,16.3,91.8,15.9z"/>
	<path class="st4" d="M96.2,8.4h4.4v1.7h-4.4V8.4z M97.8,17.6c-0.4-0.4-0.5-1.1-0.5-1.9v-10h1.9v10c0,0.2,0,0.4,0.1,0.5
		c0.1,0.1,0.2,0.2,0.4,0.2h0.9v1.8h-1.1C98.7,18.2,98.1,18,97.8,17.6z"/>
	<path class="st4" d="M103.2,8.4h1.9v9.7h-1.9V8.4z M107.9,10.3c-0.3-0.1-0.6-0.2-0.9-0.2c-0.6,0-1.1,0.2-1.4,0.5
		c-0.3,0.3-0.5,0.8-0.5,1.4l-0.2-1.9c0.3-0.6,0.7-1,1.2-1.4c0.5-0.3,1-0.5,1.6-0.5c0.4,0,0.8,0.1,1.2,0.2s0.7,0.3,0.9,0.6l-1.2,1.7
		C108.4,10.5,108.2,10.4,107.9,10.3z"/>
	<path class="st4" d="M112.9,17.8c-0.6-0.3-1.1-0.8-1.5-1.5c-0.3-0.7-0.5-1.4-0.5-2.4v-1.1c0-1,0.2-1.8,0.5-2.5
		c0.3-0.7,0.8-1.2,1.4-1.6c0.6-0.4,1.3-0.5,2.2-0.5c0.8,0,1.5,0.2,2.1,0.6c0.6,0.4,1,1,1.3,1.8c0.3,0.8,0.5,1.7,0.5,2.8v0.6h-6.6
		v-1.5h4.7c-0.1-0.8-0.3-1.4-0.6-1.9c-0.4-0.4-0.8-0.7-1.4-0.7c-0.7,0-1.3,0.2-1.7,0.7s-0.6,1.1-0.6,2V14c0,0.8,0.2,1.4,0.6,1.9
		c0.4,0.4,1,0.6,1.8,0.6c0.4,0,0.8-0.1,1.2-0.2c0.4-0.2,0.7-0.4,1-0.7l1.3,1.3c-0.5,0.5-1,0.8-1.6,1.1c-0.6,0.3-1.2,0.4-1.8,0.4
		C114.3,18.3,113.5,18.1,112.9,17.8z"/>
	<g>
		<image style="overflow:visible;" width="16" height="17" xlink:href="EC1E052B.png"  transform="matrix(1 0 0 1 122 4.9)">
		</image>
		<g>
			<path class="st4" d="M132.4,8.4h2l-3.7,9.7h-1.4l-3.7-9.7h2l2.4,6.9L132.4,8.4z"/>
		</g>
	</g>
	<g>
		<image style="overflow:visible;" width="9" height="21" xlink:href="EC1E052E.png"  transform="matrix(1 0 0 1 133 0.9)">
		</image>
		<g>
			<path class="st4" d="M136.3,4.5h1.9v1.9h-1.9V4.5z M136.3,8.4h1.9v9.7h-1.9V8.4z"/>
		</g>
	</g>
	<g>
		<image style="overflow:visible;" width="15" height="17" xlink:href="EC1E052F.png"  transform="matrix(1 0 0 1 137 4.9)">
		</image>
		<g>
			<path class="st4" d="M142.9,18.1c-0.5-0.1-1-0.3-1.4-0.5c-0.4-0.2-0.8-0.5-1.2-0.8l1.1-1.4c0.5,0.4,1,0.7,1.6,0.9
				c0.5,0.2,1,0.3,1.5,0.3c0.8,0,1.3-0.1,1.7-0.4c0.4-0.2,0.6-0.6,0.6-1.1c0-0.3-0.1-0.5-0.3-0.7c-0.2-0.2-0.5-0.3-0.8-0.3
				c-0.3-0.1-0.7-0.1-1.3-0.1c-0.1,0-0.1,0-0.2,0c-0.1,0-0.1,0-0.2,0c0,0,0,0-0.1,0c0,0-0.1,0-0.1,0c-0.6,0-1.2-0.1-1.6-0.3
				c-0.4-0.1-0.8-0.4-1.1-0.8c-0.3-0.4-0.4-0.9-0.4-1.6c0-0.7,0.1-1.3,0.4-1.7c0.3-0.5,0.7-0.8,1.3-1c0.6-0.2,1.3-0.3,2.1-0.3
				c0.5,0,1,0,1.4,0.1c0.5,0.1,0.9,0.2,1.3,0.4c0.4,0.2,0.8,0.4,1.2,0.7l-1.2,1.4c-0.5-0.3-1-0.5-1.4-0.7c-0.5-0.2-0.9-0.2-1.4-0.2
				c-0.6,0-1.1,0.1-1.5,0.3c-0.3,0.2-0.5,0.6-0.5,1c0,0.3,0.1,0.5,0.3,0.6c0.2,0.1,0.4,0.2,0.7,0.3c0.3,0,0.7,0.1,1.2,0.1
				c0,0,0.1,0,0.1,0s0.1,0,0.1,0c0,0,0,0,0.1,0c0,0,0,0,0.1,0c0.7,0,1.3,0.1,1.7,0.3c0.5,0.1,0.9,0.4,1.2,0.8c0.3,0.4,0.5,1,0.5,1.8
				c0,0.7-0.2,1.3-0.4,1.7c-0.3,0.5-0.8,0.8-1.4,1c-0.6,0.2-1.4,0.3-2.3,0.3C143.9,18.3,143.4,18.3,142.9,18.1z"/>
		</g>
	</g>
	<g>
		<image style="overflow:visible;" width="15" height="17" xlink:href="EC1E052A.png"  transform="matrix(1 0 0 1 147 4.9)">
		</image>
		<g>
			<path class="st4" d="M151.4,17.6c-0.6-0.5-0.9-1.3-0.9-2.3c0-1,0.3-1.7,0.8-2.2c0.5-0.5,1.4-0.7,2.5-0.7h2.8l0.1,1.5h-2.9
				c-0.5,0-0.9,0.1-1.1,0.3c-0.2,0.2-0.4,0.6-0.4,1c0,0.5,0.2,0.9,0.5,1.1c0.3,0.2,0.8,0.4,1.5,0.4c0.7,0,1.3-0.1,1.6-0.2
				s0.5-0.4,0.5-0.7l0.2,1.4c-0.2,0.3-0.4,0.5-0.6,0.6c-0.2,0.2-0.5,0.3-0.9,0.4c-0.3,0.1-0.7,0.1-1.1,0.1
				C152.9,18.3,152,18.1,151.4,17.6z M156.5,12c0-0.6-0.2-1.1-0.5-1.5s-0.8-0.5-1.4-0.5c-0.4,0-0.8,0.1-1.1,0.2
				c-0.4,0.1-0.7,0.3-1,0.5l-1.4-1c0.4-0.4,0.9-0.8,1.5-1c0.6-0.2,1.3-0.4,2-0.4c0.8,0,1.5,0.1,2.1,0.4c0.6,0.3,1,0.7,1.3,1.2
				c0.3,0.5,0.4,1.2,0.4,2v6.2h-1.8V12z"/>
		</g>
	</g>
	<path class="st4" d="M168,17.8c-0.6-0.3-1.1-0.8-1.4-1.4c-0.3-0.6-0.5-1.4-0.5-2.3v-1.6c0-0.9,0.2-1.6,0.5-2.3
		c0.3-0.6,0.8-1.1,1.4-1.4c0.6-0.3,1.4-0.5,2.3-0.5c0.5,0,1,0.1,1.4,0.2c0.4,0.1,0.8,0.3,1.2,0.5c0.4,0.2,0.7,0.5,0.9,0.8l-1.4,1.2
		c-0.3-0.3-0.6-0.6-1-0.7c-0.4-0.2-0.8-0.3-1.2-0.3c-0.7,0-1.3,0.2-1.7,0.6c-0.4,0.4-0.6,1-0.6,1.7v1.6c0,0.8,0.2,1.4,0.6,1.8
		c0.4,0.4,1,0.6,1.7,0.6c0.4,0,0.8-0.1,1.2-0.3c0.4-0.2,0.7-0.4,1-0.8l1.4,1.3c-0.2,0.3-0.5,0.6-0.9,0.8c-0.4,0.2-0.8,0.4-1.2,0.5
		c-0.4,0.1-0.9,0.2-1.4,0.2C169.4,18.3,168.7,18.1,168,17.8z"/>
	<path class="st4" d="M176.4,17.6c-0.6-0.5-0.9-1.3-0.9-2.3c0-1,0.3-1.7,0.8-2.2c0.5-0.5,1.4-0.7,2.5-0.7h2.8l0.1,1.5h-2.9
		c-0.5,0-0.9,0.1-1.1,0.3c-0.2,0.2-0.4,0.6-0.4,1c0,0.5,0.2,0.9,0.5,1.1c0.3,0.2,0.8,0.4,1.5,0.4c0.7,0,1.3-0.1,1.6-0.2
		s0.5-0.4,0.5-0.7l0.2,1.4c-0.2,0.3-0.4,0.5-0.6,0.6c-0.2,0.2-0.5,0.3-0.9,0.4c-0.3,0.1-0.7,0.1-1.1,0.1
		C177.9,18.3,177,18.1,176.4,17.6z M181.4,12c0-0.6-0.2-1.1-0.5-1.5c-0.3-0.4-0.8-0.5-1.4-0.5c-0.4,0-0.8,0.1-1.1,0.2
		c-0.4,0.1-0.7,0.3-1,0.5l-1.4-1c0.4-0.4,0.9-0.8,1.5-1c0.6-0.2,1.3-0.4,2-0.4c0.8,0,1.5,0.1,2.1,0.4c0.6,0.3,1,0.7,1.3,1.2
		c0.3,0.5,0.4,1.2,0.4,2v6.2h-1.8V12z"/>
	<path class="st4" d="M186.2,8.4h1.9v9.7h-1.9V8.4z M192.1,12.3c0-0.7-0.2-1.2-0.5-1.6c-0.4-0.4-0.9-0.6-1.5-0.6
		c-0.6,0-1.1,0.2-1.4,0.5c-0.3,0.3-0.5,0.8-0.5,1.4l-0.2-1.9c0.3-0.6,0.7-1,1.2-1.4c0.5-0.3,1-0.5,1.6-0.5c1.1,0,1.9,0.3,2.4,1
		c0.6,0.7,0.9,1.7,0.9,2.9v5.9h-1.9V12.3z"/>
	<path class="st4" d="M197.3,17.6c-0.6-0.5-0.9-1.3-0.9-2.3c0-1,0.3-1.7,0.8-2.2c0.5-0.5,1.4-0.7,2.5-0.7h2.8l0.1,1.5h-2.9
		c-0.5,0-0.9,0.1-1.1,0.3c-0.2,0.2-0.4,0.6-0.4,1c0,0.5,0.2,0.9,0.5,1.1c0.3,0.2,0.8,0.4,1.5,0.4c0.7,0,1.3-0.1,1.6-0.2
		s0.5-0.4,0.5-0.7l0.2,1.4c-0.2,0.3-0.4,0.5-0.6,0.6c-0.2,0.2-0.5,0.3-0.9,0.4c-0.3,0.1-0.7,0.1-1.1,0.1
		C198.8,18.3,197.9,18.1,197.3,17.6z M202.4,12c0-0.6-0.2-1.1-0.5-1.5c-0.3-0.4-0.8-0.5-1.4-0.5c-0.4,0-0.8,0.1-1.1,0.2
		c-0.4,0.1-0.7,0.3-1,0.5l-1.4-1c0.4-0.4,0.9-0.8,1.5-1c0.6-0.2,1.3-0.4,2-0.4c0.8,0,1.5,0.1,2.1,0.4c0.6,0.3,1,0.7,1.3,1.2
		c0.3,0.5,0.4,1.2,0.4,2v6.2h-1.8V12z"/>
	<path class="st4" d="M208.3,17.9c-0.5-0.3-0.9-0.8-1.1-1.4c-0.3-0.6-0.4-1.3-0.4-2.1v-2.1c0-0.8,0.1-1.6,0.4-2.1
		c0.3-0.6,0.6-1,1.1-1.4c0.5-0.3,1.1-0.5,1.8-0.5c0.6,0,1.1,0.1,1.6,0.4c0.5,0.3,0.9,0.7,1.2,1.3l-0.2,2c0-0.4-0.1-0.8-0.2-1.1
		c-0.2-0.3-0.4-0.5-0.7-0.7c-0.3-0.2-0.6-0.2-1-0.2c-0.6,0-1.1,0.2-1.5,0.6c-0.3,0.4-0.5,0.9-0.5,1.7v2.1c0,0.7,0.2,1.3,0.5,1.6
		c0.3,0.4,0.8,0.6,1.5,0.6c0.4,0,0.8-0.1,1-0.2c0.3-0.2,0.5-0.4,0.7-0.7c0.1-0.3,0.2-0.7,0.2-1.1l0.1,2.1c-0.2,0.5-0.5,0.9-1,1.2
		c-0.4,0.3-1,0.5-1.6,0.5C209.5,18.3,208.9,18.2,208.3,17.9z M212.6,4.5h1.9v13.6h-1.9V4.5z"/>
	<path class="st4" d="M217.4,4.5h1.9v1.9h-1.9V4.5z M217.4,8.4h1.9v9.7h-1.9V8.4z"/>
	<path class="st4" d="M223.9,17.8c-0.6-0.3-1.1-0.8-1.5-1.5c-0.3-0.7-0.5-1.4-0.5-2.4v-1.1c0-1,0.2-1.8,0.5-2.5
		c0.3-0.7,0.8-1.2,1.4-1.6c0.6-0.4,1.3-0.5,2.2-0.5c0.8,0,1.5,0.2,2.1,0.6c0.6,0.4,1,1,1.3,1.8c0.3,0.8,0.5,1.7,0.5,2.8v0.6h-6.6
		v-1.5h4.7c-0.1-0.8-0.3-1.4-0.6-1.9s-0.8-0.7-1.4-0.7c-0.7,0-1.3,0.2-1.7,0.7c-0.4,0.5-0.6,1.1-0.6,2V14c0,0.8,0.2,1.4,0.6,1.9
		c0.4,0.4,1,0.6,1.8,0.6c0.4,0,0.8-0.1,1.2-0.2c0.4-0.2,0.7-0.4,1-0.7l1.3,1.3c-0.5,0.5-1,0.8-1.6,1.1c-0.6,0.3-1.2,0.4-1.8,0.4
		C225.3,18.3,224.6,18.1,223.9,17.8z"/>
	<path class="st4" d="M232.5,8.4h1.9v9.7h-1.9V8.4z M238.4,12.3c0-0.7-0.2-1.2-0.5-1.6c-0.4-0.4-0.9-0.6-1.5-0.6
		c-0.6,0-1.1,0.2-1.4,0.5c-0.3,0.3-0.5,0.8-0.5,1.4l-0.2-1.9c0.3-0.6,0.7-1,1.2-1.4c0.5-0.3,1-0.5,1.6-0.5c1.1,0,1.9,0.3,2.4,1
		c0.6,0.7,0.9,1.7,0.9,2.9v5.9h-1.9V12.3z"/>
	<path class="st4" d="M250.1,17.8c-0.6-0.3-1.1-0.8-1.4-1.4c-0.3-0.6-0.5-1.4-0.5-2.3v-1.6c0-0.9,0.2-1.6,0.5-2.3
		c0.3-0.6,0.8-1.1,1.4-1.4c0.6-0.3,1.4-0.5,2.3-0.5c0.5,0,1,0.1,1.4,0.2c0.4,0.1,0.8,0.3,1.2,0.5c0.4,0.2,0.7,0.5,0.9,0.8l-1.4,1.2
		c-0.3-0.3-0.6-0.6-1-0.7c-0.4-0.2-0.8-0.3-1.2-0.3c-0.7,0-1.3,0.2-1.7,0.6c-0.4,0.4-0.6,1-0.6,1.7v1.6c0,0.8,0.2,1.4,0.6,1.8
		c0.4,0.4,1,0.6,1.7,0.6c0.4,0,0.8-0.1,1.2-0.3c0.4-0.2,0.7-0.4,1-0.8l1.4,1.3c-0.2,0.3-0.5,0.6-0.9,0.8c-0.4,0.2-0.8,0.4-1.2,0.5
		c-0.4,0.1-0.9,0.2-1.4,0.2C251.4,18.3,250.7,18.1,250.1,17.8z"/>
	<path class="st4" d="M259.5,17.8c-0.6-0.3-1.1-0.8-1.4-1.4c-0.3-0.6-0.5-1.4-0.5-2.3v-1.6c0-0.9,0.2-1.6,0.5-2.3
		c0.3-0.6,0.8-1.1,1.4-1.4c0.6-0.3,1.3-0.5,2.2-0.5c0.8,0,1.6,0.2,2.2,0.5c0.6,0.3,1.1,0.8,1.4,1.4c0.3,0.6,0.5,1.4,0.5,2.3v1.6
		c0,0.9-0.2,1.6-0.5,2.3c-0.3,0.6-0.8,1.1-1.4,1.4c-0.6,0.3-1.3,0.5-2.2,0.5C260.8,18.3,260.1,18.1,259.5,17.8z M263.2,15.9
		c0.4-0.4,0.5-1,0.5-1.8v-1.6c0-0.8-0.2-1.3-0.5-1.8c-0.4-0.4-0.9-0.6-1.6-0.6s-1.2,0.2-1.6,0.6c-0.4,0.4-0.5,1-0.5,1.8v1.6
		c0,0.8,0.2,1.3,0.5,1.8c0.4,0.4,0.9,0.6,1.6,0.6S262.9,16.3,263.2,15.9z"/>
	<path class="st4" d="M268.4,8.4h1.9v9.7h-1.9V8.4z M274.2,12.3c0-0.7-0.2-1.2-0.5-1.6c-0.3-0.4-0.8-0.6-1.4-0.6
		c-0.6,0-1.1,0.2-1.4,0.5c-0.3,0.3-0.5,0.8-0.5,1.4l-0.2-1.9c0.3-0.6,0.7-1,1.2-1.4c0.5-0.3,1-0.5,1.6-0.5c0.7,0,1.3,0.2,1.7,0.5
		c0.5,0.3,0.8,0.8,1.1,1.4c0.3,0.6,0.4,1.3,0.4,2.1v5.9h-1.9V12.3z M280,12.3c0-0.7-0.2-1.2-0.5-1.6c-0.4-0.4-0.9-0.6-1.5-0.6
		c-0.6,0-1.1,0.2-1.4,0.5c-0.3,0.4-0.5,0.9-0.5,1.5l-0.4-1.9c0.3-0.6,0.7-1.1,1.2-1.5c0.5-0.4,1.1-0.5,1.7-0.5
		c0.7,0,1.3,0.2,1.8,0.5s0.9,0.8,1.1,1.4c0.3,0.6,0.4,1.3,0.4,2.1v5.9H280V12.3z"/>
	<path class="st4" d="M284.9,8.4h1.9v9.7h-1.9V8.4z M290.7,12.3c0-0.7-0.2-1.2-0.5-1.6c-0.3-0.4-0.8-0.6-1.4-0.6
		c-0.6,0-1.1,0.2-1.4,0.5c-0.3,0.3-0.5,0.8-0.5,1.4l-0.2-1.9c0.3-0.6,0.7-1,1.2-1.4c0.5-0.3,1-0.5,1.6-0.5c0.7,0,1.3,0.2,1.7,0.5
		c0.5,0.3,0.8,0.8,1.1,1.4c0.3,0.6,0.4,1.3,0.4,2.1v5.9h-1.9V12.3z M296.5,12.3c0-0.7-0.2-1.2-0.5-1.6c-0.4-0.4-0.9-0.6-1.5-0.6
		c-0.6,0-1.1,0.2-1.4,0.5c-0.3,0.4-0.5,0.9-0.5,1.5l-0.4-1.9c0.3-0.6,0.7-1.1,1.2-1.5c0.5-0.4,1.1-0.5,1.7-0.5
		c0.7,0,1.3,0.2,1.8,0.5s0.9,0.8,1.1,1.4c0.3,0.6,0.4,1.3,0.4,2.1v5.9h-1.9V12.3z"/>
	<path class="st4" d="M303,17.8c-0.6-0.3-1.1-0.8-1.5-1.5c-0.3-0.7-0.5-1.4-0.5-2.4v-1.1c0-1,0.2-1.8,0.5-2.5
		c0.3-0.7,0.8-1.2,1.4-1.6c0.6-0.4,1.3-0.5,2.2-0.5c0.8,0,1.5,0.2,2.1,0.6c0.6,0.4,1,1,1.3,1.8c0.3,0.8,0.5,1.7,0.5,2.8v0.6h-6.6
		v-1.5h4.7c-0.1-0.8-0.3-1.4-0.6-1.9c-0.4-0.4-0.8-0.7-1.4-0.7c-0.7,0-1.3,0.2-1.7,0.7s-0.6,1.1-0.6,2V14c0,0.8,0.2,1.4,0.6,1.9
		c0.4,0.4,1,0.6,1.8,0.6c0.4,0,0.8-0.1,1.2-0.2c0.4-0.2,0.7-0.4,1-0.7l1.3,1.3c-0.5,0.5-1,0.8-1.6,1.1c-0.6,0.3-1.2,0.4-1.8,0.4
		C304.4,18.3,303.6,18.1,303,17.8z"/>
	<path class="st4" d="M0,32.3h1.9V46H0V32.3z M2.8,41.8c-0.4-0.3-0.8-0.7-1-1.2l0.1-2c0,0.4,0.1,0.8,0.2,1.1
		c0.1,0.3,0.4,0.5,0.7,0.7s0.6,0.2,1,0.2c0.6,0,1.1-0.2,1.5-0.6c0.3-0.4,0.5-0.9,0.5-1.6v-2.1c0-0.7-0.2-1.3-0.5-1.7
		c-0.3-0.4-0.8-0.6-1.5-0.6c-0.4,0-0.8,0.1-1,0.2c-0.3,0.1-0.5,0.4-0.7,0.7c-0.2,0.3-0.2,0.6-0.2,1L1.7,34c0.3-0.6,0.7-1,1.2-1.3
		c0.5-0.3,1-0.5,1.6-0.5c0.7,0,1.3,0.2,1.8,0.5C6.7,33,7.1,33.4,7.3,34c0.3,0.6,0.4,1.3,0.4,2.1v2.1c0,0.8-0.1,1.5-0.4,2.1
		c-0.3,0.6-0.6,1-1.2,1.3c-0.5,0.3-1.1,0.5-1.8,0.5C3.8,42.2,3.2,42.1,2.8,41.8z"/>
	<path class="st4" d="M12.3,39.6c0,0.2,0.1,0.4,0.2,0.5c0.1,0.1,0.2,0.2,0.4,0.2h0.9v1.8h-1.1c-0.7,0-1.3-0.2-1.7-0.7
		c-0.4-0.4-0.6-1.1-0.6-1.9V28.5h1.9V39.6z"/>
	<path class="st4" d="M17.8,38.3c0,0.7,0.2,1.2,0.5,1.6c0.3,0.4,0.8,0.6,1.5,0.6c0.6,0,1.1-0.2,1.5-0.5c0.3-0.3,0.5-0.8,0.5-1.4
		l0.1,2c-0.2,0.5-0.5,0.9-1,1.2c-0.4,0.3-1,0.5-1.7,0.5c-1.1,0-1.9-0.3-2.5-1c-0.6-0.7-0.9-1.7-0.9-2.9v-5.9h1.9V38.3z M21.8,32.3
		h1.9v9.7h-1.9V32.3z"/>
	<path class="st4" d="M28.4,42c-0.5-0.1-1-0.3-1.4-0.5c-0.4-0.2-0.8-0.5-1.2-0.8l1.1-1.4c0.5,0.4,1,0.7,1.6,0.9
		c0.5,0.2,1,0.3,1.5,0.3c0.8,0,1.3-0.1,1.7-0.4c0.4-0.2,0.6-0.6,0.6-1.1c0-0.3-0.1-0.5-0.3-0.7c-0.2-0.2-0.5-0.3-0.8-0.3
		s-0.7-0.1-1.3-0.1c-0.1,0-0.1,0-0.2,0c-0.1,0-0.1,0-0.2,0c0,0,0,0-0.1,0c0,0-0.1,0-0.1,0c-0.6,0-1.2-0.1-1.6-0.3
		c-0.4-0.1-0.8-0.4-1.1-0.8c-0.3-0.4-0.4-0.9-0.4-1.6s0.1-1.3,0.4-1.7c0.3-0.5,0.7-0.8,1.3-1c0.6-0.2,1.3-0.3,2.1-0.3
		c0.5,0,1,0,1.4,0.1c0.5,0.1,0.9,0.2,1.3,0.4c0.4,0.2,0.8,0.4,1.2,0.7l-1.2,1.4c-0.5-0.3-1-0.5-1.4-0.7c-0.5-0.2-0.9-0.2-1.4-0.2
		c-0.6,0-1.1,0.1-1.5,0.3c-0.3,0.2-0.5,0.6-0.5,1c0,0.3,0.1,0.5,0.3,0.6c0.2,0.1,0.4,0.2,0.7,0.3c0.3,0,0.7,0.1,1.2,0.1
		c0,0,0.1,0,0.1,0c0,0,0.1,0,0.1,0c0,0,0,0,0.1,0c0,0,0,0,0.1,0c0.7,0,1.3,0.1,1.7,0.3c0.5,0.1,0.9,0.4,1.2,0.8
		c0.3,0.4,0.5,1,0.5,1.8c0,0.7-0.2,1.3-0.4,1.7c-0.3,0.5-0.8,0.8-1.4,1c-0.6,0.2-1.4,0.3-2.3,0.3C29.4,42.2,28.9,42.2,28.4,42z"/>
	<path class="st4" d="M42.9,41.8c-0.5-0.3-0.9-0.8-1.1-1.4c-0.3-0.6-0.4-1.3-0.4-2.1v-2.1c0-0.8,0.1-1.6,0.4-2.1
		c0.3-0.6,0.6-1,1.1-1.4c0.5-0.3,1.1-0.5,1.8-0.5c0.6,0,1.1,0.1,1.6,0.4c0.5,0.3,0.9,0.7,1.2,1.3l-0.2,2c0-0.4-0.1-0.8-0.2-1.1
		c-0.2-0.3-0.4-0.5-0.7-0.7c-0.3-0.2-0.6-0.2-1-0.2c-0.6,0-1.1,0.2-1.5,0.6c-0.3,0.4-0.5,0.9-0.5,1.7v2.1c0,0.7,0.2,1.3,0.5,1.6
		c0.3,0.4,0.8,0.6,1.5,0.6c0.4,0,0.8-0.1,1-0.2c0.3-0.2,0.5-0.4,0.7-0.7c0.1-0.3,0.2-0.7,0.2-1.1l0.1,2.1c-0.2,0.5-0.5,0.9-1,1.2
		c-0.4,0.3-1,0.5-1.6,0.5C44,42.2,43.4,42.1,42.9,41.8z M47.2,28.5h1.9v13.6h-1.9V28.5z"/>
	<path class="st4" d="M53.7,41.7c-0.6-0.3-1.1-0.8-1.5-1.5s-0.5-1.4-0.5-2.4v-1.1c0-1,0.2-1.8,0.5-2.5c0.3-0.7,0.8-1.2,1.4-1.6
		c0.6-0.4,1.3-0.5,2.2-0.5c0.8,0,1.5,0.2,2.1,0.6c0.6,0.4,1,1,1.3,1.8c0.3,0.8,0.5,1.7,0.5,2.8V38h-6.6v-1.5h4.7
		c-0.1-0.8-0.3-1.4-0.6-1.9c-0.4-0.4-0.8-0.7-1.4-0.7c-0.7,0-1.3,0.2-1.7,0.7c-0.4,0.5-0.6,1.1-0.6,2v1.2c0,0.8,0.2,1.4,0.6,1.9
		c0.4,0.4,1,0.6,1.8,0.6c0.4,0,0.8-0.1,1.2-0.2c0.4-0.2,0.7-0.4,1-0.7l1.3,1.3c-0.5,0.5-1,0.8-1.6,1.1c-0.6,0.3-1.2,0.4-1.8,0.4
		C55.1,42.2,54.3,42,53.7,41.7z"/>
	<path class="st4" d="M70.7,42.1h-1.9V30.5l-1.9,1.2v-2l1.9-1.3h1.9V42.1z"/>
	<path class="st4" d="M73.5,40.1h2v2h-2V40.1z"/>
	<path class="st4" d="M78.5,41.2c-0.7-0.7-1-1.6-1-2.8v-6.2c0-1.2,0.3-2.2,1-2.9c0.7-0.7,1.6-1,2.9-1c1.3,0,2.2,0.3,2.9,1
		s1,1.6,1,2.9v6.2c0,1.2-0.3,2.2-1,2.9c-0.7,0.7-1.6,1-2.9,1C80.1,42.2,79.2,41.9,78.5,41.2z M82.9,39.9c0.3-0.4,0.5-0.9,0.5-1.5
		v-6.2c0-0.7-0.2-1.2-0.5-1.5c-0.3-0.4-0.8-0.5-1.5-0.5c-0.7,0-1.2,0.2-1.5,0.5c-0.3,0.4-0.5,0.9-0.5,1.5v6.2c0,0.7,0.2,1.2,0.5,1.5
		c0.3,0.4,0.8,0.5,1.5,0.5C82.1,40.4,82.6,40.2,82.9,39.9z"/>
	<path class="st4" d="M88.7,41.2c-0.7-0.7-1-1.6-1-2.8v-6.2c0-1.2,0.3-2.2,1-2.9c0.7-0.7,1.6-1,2.9-1c1.3,0,2.2,0.3,2.9,1
		s1,1.6,1,2.9v6.2c0,1.2-0.3,2.2-1,2.9c-0.7,0.7-1.6,1-2.9,1C90.4,42.2,89.4,41.9,88.7,41.2z M93.1,39.9c0.3-0.4,0.5-0.9,0.5-1.5
		v-6.2c0-0.7-0.2-1.2-0.5-1.5c-0.3-0.4-0.8-0.5-1.5-0.5c-0.7,0-1.2,0.2-1.5,0.5c-0.3,0.4-0.5,0.9-0.5,1.5v6.2c0,0.7,0.2,1.2,0.5,1.5
		c0.3,0.4,0.8,0.5,1.5,0.5C92.3,40.4,92.8,40.2,93.1,39.9z"/>
	<path class="st4" d="M98.9,41.2c-0.7-0.7-1-1.6-1-2.8v-6.2c0-1.2,0.3-2.2,1-2.9c0.7-0.7,1.6-1,2.9-1c1.3,0,2.2,0.3,2.9,1
		s1,1.6,1,2.9v6.2c0,1.2-0.3,2.2-1,2.9c-0.7,0.7-1.6,1-2.9,1C100.6,42.2,99.6,41.9,98.9,41.2z M103.3,39.9c0.3-0.4,0.5-0.9,0.5-1.5
		v-6.2c0-0.7-0.2-1.2-0.5-1.5c-0.3-0.4-0.8-0.5-1.5-0.5c-0.7,0-1.2,0.2-1.5,0.5c-0.3,0.4-0.5,0.9-0.5,1.5v6.2c0,0.7,0.2,1.2,0.5,1.5
		c0.3,0.4,0.8,0.5,1.5,0.5C102.5,40.4,103,40.2,103.3,39.9z"/>
	<path class="st4" d="M107.7,40.1h2v2h-2V40.1z"/>
	<path class="st4" d="M112.8,41.2c-0.7-0.7-1-1.6-1-2.8v-6.2c0-1.2,0.3-2.2,1-2.9c0.7-0.7,1.6-1,2.9-1c1.3,0,2.2,0.3,2.9,1
		s1,1.6,1,2.9v6.2c0,1.2-0.3,2.2-1,2.9c-0.7,0.7-1.6,1-2.9,1C114.4,42.2,113.4,41.9,112.8,41.2z M117.1,39.9
		c0.3-0.4,0.5-0.9,0.5-1.5v-6.2c0-0.7-0.2-1.2-0.5-1.5c-0.3-0.4-0.8-0.5-1.5-0.5c-0.7,0-1.2,0.2-1.5,0.5c-0.3,0.4-0.5,0.9-0.5,1.5
		v6.2c0,0.7,0.2,1.2,0.5,1.5c0.3,0.4,0.8,0.5,1.5,0.5C116.3,40.4,116.8,40.2,117.1,39.9z"/>
	<path class="st4" d="M123,41.2c-0.7-0.7-1-1.6-1-2.8v-6.2c0-1.2,0.3-2.2,1-2.9c0.7-0.7,1.6-1,2.9-1c1.3,0,2.2,0.3,2.9,1
		c0.7,0.7,1,1.6,1,2.9v6.2c0,1.2-0.3,2.2-1,2.9c-0.7,0.7-1.6,1-2.9,1C124.6,42.2,123.6,41.9,123,41.2z M127.4,39.9
		c0.3-0.4,0.5-0.9,0.5-1.5v-6.2c0-0.7-0.2-1.2-0.5-1.5c-0.3-0.4-0.8-0.5-1.5-0.5c-0.7,0-1.2,0.2-1.5,0.5c-0.3,0.4-0.5,0.9-0.5,1.5
		v6.2c0,0.7,0.2,1.2,0.5,1.5c0.3,0.4,0.8,0.5,1.5,0.5C126.5,40.4,127,40.2,127.4,39.9z"/>
	<path class="st4" d="M133.2,41.2c-0.7-0.7-1-1.6-1-2.8v-6.2c0-1.2,0.3-2.2,1-2.9c0.7-0.7,1.6-1,2.9-1c1.3,0,2.2,0.3,2.9,1
		c0.7,0.7,1,1.6,1,2.9v6.2c0,1.2-0.3,2.2-1,2.9c-0.7,0.7-1.6,1-2.9,1C134.8,42.2,133.8,41.9,133.2,41.2z M137.6,39.9
		c0.3-0.4,0.5-0.9,0.5-1.5v-6.2c0-0.7-0.2-1.2-0.5-1.5c-0.3-0.4-0.8-0.5-1.5-0.5c-0.7,0-1.2,0.2-1.5,0.5c-0.3,0.4-0.5,0.9-0.5,1.5
		v6.2c0,0.7,0.2,1.2,0.5,1.5c0.3,0.4,0.8,0.5,1.5,0.5C136.8,40.4,137.3,40.2,137.6,39.9z"/>
	<path class="st4" d="M149.3,41.8c-0.5-0.3-0.9-0.8-1.1-1.4c-0.3-0.6-0.4-1.3-0.4-2.1v-2.1c0-0.8,0.1-1.6,0.4-2.1
		c0.3-0.6,0.6-1,1.1-1.4c0.5-0.3,1.1-0.5,1.8-0.5c0.6,0,1.1,0.1,1.6,0.4c0.5,0.3,0.9,0.7,1.2,1.3l-0.2,2c0-0.4-0.1-0.8-0.2-1.1
		c-0.1-0.3-0.4-0.5-0.7-0.7c-0.3-0.2-0.6-0.2-1-0.2c-0.6,0-1.1,0.2-1.5,0.6c-0.3,0.4-0.5,0.9-0.5,1.7v2.1c0,0.7,0.2,1.3,0.5,1.6
		c0.3,0.4,0.8,0.6,1.5,0.6c0.4,0,0.8-0.1,1-0.2c0.3-0.2,0.5-0.4,0.7-0.7c0.2-0.3,0.2-0.7,0.2-1.1l0.1,2.1c-0.2,0.5-0.5,0.9-1,1.2
		s-1,0.5-1.6,0.5C150.4,42.2,149.8,42.1,149.3,41.8z M153.6,28.5h1.9v13.6h-1.9V28.5z"/>
	<path class="st4" d="M160,41.7c-0.6-0.3-1.1-0.8-1.5-1.5s-0.5-1.4-0.5-2.4v-1.1c0-1,0.2-1.8,0.5-2.5c0.3-0.7,0.8-1.2,1.4-1.6
		c0.6-0.4,1.3-0.5,2.2-0.5c0.8,0,1.5,0.2,2.1,0.6c0.6,0.4,1,1,1.3,1.8c0.3,0.8,0.5,1.7,0.5,2.8V38h-6.6v-1.5h4.7
		c-0.1-0.8-0.3-1.4-0.6-1.9c-0.4-0.4-0.8-0.7-1.4-0.7c-0.7,0-1.3,0.2-1.7,0.7c-0.4,0.5-0.6,1.1-0.6,2v1.2c0,0.8,0.2,1.4,0.6,1.9
		c0.4,0.4,1,0.6,1.8,0.6c0.4,0,0.8-0.1,1.2-0.2c0.4-0.2,0.7-0.4,1-0.7l1.3,1.3c-0.5,0.5-1,0.8-1.6,1.1c-0.6,0.3-1.2,0.4-1.8,0.4
		C161.5,42.2,160.7,42,160,41.7z"/>
	<path class="st4" d="M175.5,41.7c-0.6-0.3-1.1-0.8-1.4-1.4c-0.3-0.6-0.5-1.4-0.5-2.3v-1.6c0-0.9,0.2-1.6,0.5-2.3
		c0.3-0.6,0.8-1.1,1.4-1.4c0.6-0.3,1.4-0.5,2.3-0.5c0.5,0,1,0.1,1.4,0.2c0.4,0.1,0.8,0.3,1.2,0.5c0.4,0.2,0.7,0.5,0.9,0.8l-1.4,1.2
		c-0.3-0.3-0.6-0.6-1-0.7c-0.4-0.2-0.8-0.3-1.2-0.3c-0.7,0-1.3,0.2-1.7,0.6c-0.4,0.4-0.6,1-0.6,1.7V38c0,0.8,0.2,1.4,0.6,1.8
		c0.4,0.4,1,0.6,1.7,0.6c0.4,0,0.8-0.1,1.2-0.3c0.4-0.2,0.7-0.4,1-0.8l1.4,1.3c-0.2,0.3-0.5,0.6-0.9,0.8c-0.4,0.2-0.8,0.4-1.2,0.5
		c-0.4,0.1-0.9,0.2-1.4,0.2C176.8,42.2,176.1,42,175.5,41.7z"/>
	<path class="st4" d="M185.3,39.6c0,0.2,0.1,0.4,0.2,0.5c0.1,0.1,0.2,0.2,0.4,0.2h0.9v1.8h-1.1c-0.7,0-1.3-0.2-1.7-0.7
		c-0.4-0.4-0.6-1.1-0.6-1.9V28.5h1.9V39.6z"/>
	<path class="st4" d="M188.9,28.5h1.9v1.9h-1.9V28.5z M188.9,32.3h1.9v9.7h-1.9V32.3z"/>
	<path class="st4" d="M195.4,41.7c-0.6-0.3-1.1-0.8-1.5-1.5s-0.5-1.4-0.5-2.4v-1.1c0-1,0.2-1.8,0.5-2.5c0.3-0.7,0.8-1.2,1.4-1.6
		c0.6-0.4,1.3-0.5,2.2-0.5c0.8,0,1.5,0.2,2.1,0.6c0.6,0.4,1,1,1.3,1.8c0.3,0.8,0.5,1.7,0.5,2.8V38h-6.6v-1.5h4.7
		c-0.1-0.8-0.3-1.4-0.6-1.9c-0.4-0.4-0.8-0.7-1.4-0.7c-0.7,0-1.3,0.2-1.7,0.7c-0.4,0.5-0.6,1.1-0.6,2v1.2c0,0.8,0.2,1.4,0.6,1.9
		c0.4,0.4,1,0.6,1.8,0.6c0.4,0,0.8-0.1,1.2-0.2c0.4-0.2,0.7-0.4,1-0.7l1.3,1.3c-0.5,0.5-1,0.8-1.6,1.1c-0.6,0.3-1.2,0.4-1.8,0.4
		C196.8,42.2,196.1,42,195.4,41.7z"/>
	<path class="st4" d="M204,32.3h1.9v9.7H204V32.3z M209.9,36.2c0-0.7-0.2-1.2-0.5-1.6c-0.4-0.4-0.9-0.6-1.5-0.6
		c-0.6,0-1.1,0.2-1.4,0.5c-0.3,0.3-0.5,0.8-0.5,1.4l-0.2-1.9c0.3-0.6,0.7-1,1.2-1.4c0.5-0.3,1-0.5,1.6-0.5c1.1,0,1.9,0.3,2.4,1
		c0.6,0.7,0.9,1.7,0.9,2.9v5.9h-1.9V36.2z"/>
	<path class="st4" d="M214,32.3h4.4v1.7H214V32.3z M215.5,41.5c-0.4-0.4-0.5-1.1-0.5-1.9v-10h1.9v10c0,0.2,0,0.4,0.1,0.5
		c0.1,0.1,0.2,0.2,0.4,0.2h0.9v1.8h-1.1C216.5,42.1,215.9,41.9,215.5,41.5z"/>
	<path class="st4" d="M222.8,42c-0.5-0.1-1-0.3-1.4-0.5c-0.4-0.2-0.8-0.5-1.2-0.8l1.1-1.4c0.5,0.4,1,0.7,1.6,0.9
		c0.5,0.2,1,0.3,1.5,0.3c0.8,0,1.3-0.1,1.7-0.4c0.4-0.2,0.6-0.6,0.6-1.1c0-0.3-0.1-0.5-0.3-0.7c-0.2-0.2-0.5-0.3-0.8-0.3
		c-0.3-0.1-0.7-0.1-1.3-0.1c0,0-0.1,0-0.2,0c-0.1,0-0.1,0-0.2,0c0,0-0.1,0-0.1,0c0,0,0,0-0.1,0c-0.6,0-1.2-0.1-1.6-0.3
		c-0.4-0.1-0.8-0.4-1.1-0.8c-0.3-0.4-0.4-0.9-0.4-1.6s0.1-1.3,0.4-1.7c0.3-0.5,0.7-0.8,1.3-1c0.6-0.2,1.3-0.3,2.1-0.3
		c0.5,0,1,0,1.4,0.1c0.5,0.1,0.9,0.2,1.3,0.4c0.4,0.2,0.8,0.4,1.2,0.7l-1.2,1.4c-0.5-0.3-1-0.5-1.4-0.7c-0.5-0.2-0.9-0.2-1.4-0.2
		c-0.7,0-1.1,0.1-1.5,0.3c-0.3,0.2-0.5,0.6-0.5,1c0,0.3,0.1,0.5,0.3,0.6c0.2,0.1,0.4,0.2,0.7,0.3c0.3,0,0.7,0.1,1.2,0.1
		c0,0,0.1,0,0.1,0s0.1,0,0.1,0c0,0,0,0,0.1,0c0,0,0,0,0.1,0c0.7,0,1.3,0.1,1.7,0.3c0.5,0.1,0.9,0.4,1.2,0.8c0.3,0.4,0.5,1,0.5,1.8
		c0,0.7-0.1,1.3-0.4,1.7c-0.3,0.5-0.8,0.8-1.4,1c-0.6,0.2-1.4,0.3-2.3,0.3C223.9,42.2,223.3,42.2,222.8,42z"/>
	<path class="st4" d="M237.9,42c-0.5-0.1-1-0.3-1.4-0.5c-0.4-0.2-0.8-0.5-1.2-0.8l1.1-1.4c0.5,0.4,1,0.7,1.6,0.9
		c0.5,0.2,1,0.3,1.5,0.3c0.8,0,1.3-0.1,1.7-0.4c0.4-0.2,0.6-0.6,0.6-1.1c0-0.3-0.1-0.5-0.3-0.7c-0.2-0.2-0.5-0.3-0.8-0.3
		c-0.3-0.1-0.7-0.1-1.3-0.1c0,0-0.1,0-0.2,0c-0.1,0-0.1,0-0.2,0c0,0-0.1,0-0.1,0c0,0,0,0-0.1,0c-0.6,0-1.2-0.1-1.6-0.3
		c-0.4-0.1-0.8-0.4-1.1-0.8c-0.3-0.4-0.4-0.9-0.4-1.6s0.1-1.3,0.4-1.7c0.3-0.5,0.7-0.8,1.3-1c0.6-0.2,1.3-0.3,2.1-0.3
		c0.5,0,1,0,1.4,0.1c0.5,0.1,0.9,0.2,1.3,0.4c0.4,0.2,0.8,0.4,1.2,0.7l-1.2,1.4c-0.5-0.3-1-0.5-1.4-0.7c-0.5-0.2-0.9-0.2-1.4-0.2
		c-0.7,0-1.1,0.1-1.5,0.3c-0.3,0.2-0.5,0.6-0.5,1c0,0.3,0.1,0.5,0.3,0.6c0.2,0.1,0.4,0.2,0.7,0.3c0.3,0,0.7,0.1,1.2,0.1
		c0,0,0.1,0,0.1,0s0.1,0,0.1,0c0,0,0,0,0.1,0c0,0,0,0,0.1,0c0.7,0,1.3,0.1,1.7,0.3c0.5,0.1,0.9,0.4,1.2,0.8c0.3,0.4,0.5,1,0.5,1.8
		c0,0.7-0.1,1.3-0.4,1.7c-0.3,0.5-0.8,0.8-1.4,1c-0.6,0.2-1.4,0.3-2.3,0.3C239,42.2,238.4,42.2,237.9,42z"/>
	<path class="st4" d="M246.5,41.5c-0.6-0.5-0.9-1.3-0.9-2.3c0-1,0.3-1.7,0.8-2.2c0.5-0.5,1.4-0.7,2.5-0.7h2.8l0.1,1.5h-2.9
		c-0.5,0-0.9,0.1-1.1,0.3c-0.2,0.2-0.4,0.6-0.4,1c0,0.5,0.2,0.9,0.5,1.1c0.3,0.2,0.8,0.4,1.5,0.4c0.7,0,1.3-0.1,1.6-0.2
		c0.4-0.2,0.5-0.4,0.5-0.7l0.2,1.4c-0.2,0.3-0.4,0.5-0.6,0.6c-0.2,0.2-0.5,0.3-0.9,0.4c-0.3,0.1-0.7,0.1-1.1,0.1
		C248,42.2,247.1,42,246.5,41.5z M251.5,35.9c0-0.6-0.2-1.1-0.5-1.5c-0.3-0.4-0.8-0.5-1.4-0.5c-0.4,0-0.8,0.1-1.1,0.2
		c-0.4,0.1-0.7,0.3-1,0.5l-1.4-1c0.4-0.4,0.9-0.8,1.5-1c0.6-0.2,1.3-0.4,2-0.4c0.8,0,1.5,0.1,2.1,0.4c0.6,0.3,1,0.7,1.3,1.2
		c0.3,0.5,0.4,1.2,0.4,2v6.2h-1.8V35.9z"/>
	<path class="st4" d="M255.5,32.3h4.4v1.7h-4.4V32.3z M257.1,41.5c-0.4-0.4-0.5-1.1-0.5-1.9v-10h1.9v10c0,0.2,0,0.4,0.1,0.5
		c0.1,0.1,0.2,0.2,0.4,0.2h0.9v1.8h-1.1C258,42.1,257.4,41.9,257.1,41.5z"/>
	<path class="st4" d="M262.5,28.5h1.9v1.9h-1.9V28.5z M262.5,32.3h1.9v9.7h-1.9V32.3z"/>
	<path class="st4" d="M269.2,42c-0.5-0.1-1-0.3-1.4-0.5c-0.4-0.2-0.8-0.5-1.2-0.8l1.1-1.4c0.5,0.4,1,0.7,1.6,0.9
		c0.5,0.2,1,0.3,1.5,0.3c0.8,0,1.3-0.1,1.7-0.4c0.4-0.2,0.6-0.6,0.6-1.1c0-0.3-0.1-0.5-0.3-0.7c-0.2-0.2-0.5-0.3-0.8-0.3
		c-0.3-0.1-0.7-0.1-1.3-0.1c0,0-0.1,0-0.2,0c-0.1,0-0.1,0-0.2,0c0,0-0.1,0-0.1,0c0,0,0,0-0.1,0c-0.6,0-1.2-0.1-1.6-0.3
		c-0.4-0.1-0.8-0.4-1.1-0.8c-0.3-0.4-0.4-0.9-0.4-1.6s0.1-1.3,0.4-1.7c0.3-0.5,0.7-0.8,1.3-1c0.6-0.2,1.3-0.3,2.1-0.3
		c0.5,0,1,0,1.4,0.1c0.5,0.1,0.9,0.2,1.3,0.4c0.4,0.2,0.8,0.4,1.2,0.7l-1.2,1.4c-0.5-0.3-1-0.5-1.4-0.7c-0.5-0.2-0.9-0.2-1.4-0.2
		c-0.7,0-1.1,0.1-1.5,0.3c-0.3,0.2-0.5,0.6-0.5,1c0,0.3,0.1,0.5,0.3,0.6c0.2,0.1,0.4,0.2,0.7,0.3c0.3,0,0.7,0.1,1.2,0.1
		c0,0,0.1,0,0.1,0s0.1,0,0.1,0c0,0,0,0,0.1,0c0,0,0,0,0.1,0c0.7,0,1.3,0.1,1.7,0.3c0.5,0.1,0.9,0.4,1.2,0.8c0.3,0.4,0.5,1,0.5,1.8
		c0,0.7-0.1,1.3-0.4,1.7c-0.3,0.5-0.8,0.8-1.4,1c-0.6,0.2-1.4,0.3-2.3,0.3C270.2,42.2,269.7,42.2,269.2,42z"/>
	<path class="st4" d="M276.5,32.3h4.9V34h-4.9V32.3z M277.6,31c0-0.9,0.2-1.5,0.6-1.9c0.4-0.4,1-0.6,1.8-0.6h1.4v1.8H280
		c-0.2,0-0.3,0.1-0.4,0.2c-0.1,0.1-0.1,0.3-0.1,0.5v11.1h-1.9V31z"/>
	<path class="st4" d="M283.4,41.5c-0.6-0.5-0.9-1.3-0.9-2.3c0-1,0.3-1.7,0.8-2.2c0.5-0.5,1.4-0.7,2.5-0.7h2.8l0.1,1.5h-2.9
		c-0.5,0-0.9,0.1-1.1,0.3c-0.2,0.2-0.4,0.6-0.4,1c0,0.5,0.2,0.9,0.5,1.1c0.3,0.2,0.8,0.4,1.5,0.4c0.7,0,1.3-0.1,1.6-0.2
		c0.4-0.2,0.5-0.4,0.5-0.7l0.2,1.4c-0.2,0.3-0.4,0.5-0.6,0.6c-0.2,0.2-0.5,0.3-0.9,0.4c-0.3,0.1-0.7,0.1-1.1,0.1
		C284.9,42.2,284,42,283.4,41.5z M288.5,35.9c0-0.6-0.2-1.1-0.5-1.5c-0.3-0.4-0.8-0.5-1.4-0.5c-0.4,0-0.8,0.1-1.1,0.2
		c-0.4,0.1-0.7,0.3-1,0.5l-1.4-1c0.4-0.4,0.9-0.8,1.5-1c0.6-0.2,1.3-0.4,2-0.4c0.8,0,1.5,0.1,2.1,0.4c0.6,0.3,1,0.7,1.3,1.2
		c0.3,0.5,0.4,1.2,0.4,2v6.2h-1.8V35.9z"/>
	<path class="st4" d="M293.2,28.5h1.9v1.9h-1.9V28.5z M293.2,32.3h1.9v9.7h-1.9V32.3z"/>
	<path class="st4" d="M297.3,32.3h4.4v1.7h-4.4V32.3z M298.8,41.5c-0.4-0.4-0.5-1.1-0.5-1.9v-10h1.9v10c0,0.2,0,0.4,0.1,0.5
		c0.1,0.1,0.2,0.2,0.4,0.2h0.9v1.8h-1.1C299.8,42.1,299.2,41.9,298.8,41.5z"/>
	<path class="st4" d="M306.1,42c-0.5-0.1-1-0.3-1.4-0.5c-0.4-0.2-0.8-0.5-1.2-0.8l1.1-1.4c0.5,0.4,1,0.7,1.6,0.9
		c0.5,0.2,1,0.3,1.5,0.3c0.8,0,1.3-0.1,1.7-0.4c0.4-0.2,0.6-0.6,0.6-1.1c0-0.3-0.1-0.5-0.3-0.7c-0.2-0.2-0.5-0.3-0.8-0.3
		c-0.3-0.1-0.7-0.1-1.3-0.1c0,0-0.1,0-0.2,0c-0.1,0-0.1,0-0.2,0c0,0-0.1,0-0.1,0c0,0,0,0-0.1,0c-0.6,0-1.2-0.1-1.6-0.3
		c-0.4-0.1-0.8-0.4-1.1-0.8c-0.3-0.4-0.4-0.9-0.4-1.6s0.1-1.3,0.4-1.7c0.3-0.5,0.7-0.8,1.3-1c0.6-0.2,1.3-0.3,2.1-0.3
		c0.5,0,1,0,1.4,0.1c0.5,0.1,0.9,0.2,1.3,0.4c0.4,0.2,0.8,0.4,1.2,0.7l-1.2,1.4c-0.5-0.3-1-0.5-1.4-0.7c-0.5-0.2-0.9-0.2-1.4-0.2
		c-0.7,0-1.1,0.1-1.5,0.3c-0.3,0.2-0.5,0.6-0.5,1c0,0.3,0.1,0.5,0.3,0.6c0.2,0.1,0.4,0.2,0.7,0.3c0.3,0,0.7,0.1,1.2,0.1
		c0,0,0.1,0,0.1,0s0.1,0,0.1,0c0,0,0,0,0.1,0c0,0,0,0,0.1,0c0.7,0,1.3,0.1,1.7,0.3c0.5,0.1,0.9,0.4,1.2,0.8c0.3,0.4,0.5,1,0.5,1.8
		c0,0.7-0.1,1.3-0.4,1.7c-0.3,0.5-0.8,0.8-1.4,1c-0.6,0.2-1.4,0.3-2.3,0.3C307.1,42.2,306.6,42.2,306.1,42z"/>
</g>
</svg>
