<svg xmlns="http://www.w3.org/2000/svg" xmlns:xlink="http://www.w3.org/1999/xlink" id="Calque_1" x="0" y="0" version="1.1" viewBox="0 0 671.8 22.7" xml:space="preserve" style="enable-background:new 0 0 671.8 22.7"><style type="text/css">.st0{fill:#fec900}.st1{fill:#f8ad00}.st2{fill:#fff}</style><g><path d="M594.4,8l4.5,0.7c0.4,0.1,0.5,0.5,0.3,0.8l-3.3,3.2c-0.1,0.1-0.2,0.3-0.1,0.4l0.8,4.5c0.1,0.4-0.3,0.7-0.7,0.5 l-4-2.1c-0.1-0.1-0.3-0.1-0.4,0l-4,2.1c-0.3,0.2-0.7-0.1-0.7-0.5l0.8-4.5c0-0.1,0-0.3-0.1-0.4l-3.3-3.2c-0.3-0.3-0.1-0.7,0.3-0.8 l4.5-0.6c0.1,0,0.3-0.1,0.3-0.2l2-4.1c0.2-0.3,0.6-0.3,0.8,0l2,4.1C594.2,7.9,594.3,8,594.4,8z" class="st0"/><g><path d="M594.9,8.2c0.1,0.1,0.2,0.2,0.3,0.2l4.1,0.6c0-0.2-0.2-0.3-0.4-0.3L594.9,8.2L594.9,8.2z" class="st1"/><path d="M592.7,16.3L592.7,16.3l3.2,1.8h0.1L592.7,16.3z" class="st1"/><path d="M587.6,17.9l0.8-4.5c0-0.1,0-0.3-0.1-0.4L585,9.8c-0.3-0.3-0.1-0.7,0.3-0.8l4.5-0.6c0.1,0,0.3-0.1,0.3-0.2 l2-4.1c0-0.1,0.1-0.1,0.1-0.2l-0.1-0.2c-0.2-0.3-0.6-0.3-0.8,0l-2,4.1C589.2,7.9,589.1,8,589,8l-4.5,0.6c-0.4,0.1-0.5,0.5-0.3,0.8 l3.3,3.2c0.1,0.1,0.2,0.3,0.1,0.4l-0.8,4.5c-0.1,0.4,0.3,0.7,0.7,0.5L587.6,17.9L587.6,17.9z" class="st1"/></g><path d="M612.5,8l4.5,0.7c0.4,0.1,0.5,0.5,0.3,0.8l-3.3,3.2c-0.1,0.1-0.2,0.3-0.1,0.4l0.8,4.5c0.1,0.4-0.3,0.7-0.7,0.5 l-4-2.1c-0.1-0.1-0.3-0.1-0.4,0l-4,2.1c-0.3,0.2-0.7-0.1-0.7-0.5l0.8-4.5c0-0.1,0-0.3-0.1-0.4l-3.3-3.2c-0.3-0.3-0.1-0.7,0.3-0.8 L607,8c0.1,0,0.3-0.1,0.3-0.2l2-4.1c0.2-0.3,0.7-0.3,0.8,0l2,4.1C612.2,7.9,612.4,8,612.5,8z" class="st0"/><g><path d="M612.8,8.2c0.1,0.1,0.2,0.2,0.3,0.2l4.1,0.6c0-0.2-0.2-0.3-0.4-0.3L612.8,8.2L612.8,8.2z" class="st1"/><path d="M610.6,16.3L610.6,16.3l3.2,1.8h0.1L610.6,16.3z" class="st1"/><path d="M605.5,17.9l0.8-4.5c0-0.1,0-0.3-0.1-0.4l-3.3-3.2c-0.3-0.3-0.1-0.7,0.3-0.8l4.5-0.6c0.1,0,0.3-0.1,0.3-0.2 l2-4.1c0-0.1,0.1-0.1,0.1-0.2L610,3.7c-0.2-0.3-0.6-0.3-0.8,0l-2,4.1C607.1,7.9,607,8,606.9,8l-4.5,0.6c-0.4,0.1-0.5,0.5-0.3,0.8 l3.3,3.2c0.1,0.1,0.2,0.3,0.1,0.4l-0.8,4.5c-0.1,0.4,0.3,0.7,0.7,0.5L605.5,17.9L605.5,17.9z" class="st1"/></g><path d="M630.6,8l4.5,0.7c0.4,0.1,0.5,0.5,0.3,0.8l-3.3,3.2c-0.1,0.1-0.2,0.3-0.1,0.4l0.8,4.5c0.1,0.4-0.3,0.7-0.7,0.5 l-4-2.1c-0.1-0.1-0.3-0.1-0.4,0l-4,2.1c-0.3,0.2-0.7-0.1-0.7-0.5l0.8-4.5c0-0.1,0-0.3-0.1-0.4l-3.3-3.2c-0.3-0.3-0.1-0.7,0.3-0.8 L625,8c0.1,0,0.3-0.1,0.3-0.2l2-4.1c0.2-0.3,0.6-0.3,0.8,0l2,4.1C630.3,7.9,630.4,8,630.6,8z" class="st0"/><g><path d="M630.9,8.2c0.1,0.1,0.2,0.2,0.3,0.2l4.1,0.6c0-0.2-0.2-0.3-0.4-0.3L630.9,8.2L630.9,8.2z" class="st1"/><path d="M628.7,16.3L628.7,16.3l3.2,1.8h0.1L628.7,16.3z" class="st1"/><path d="M623.6,17.9l0.8-4.5c0-0.1,0-0.3-0.1-0.4L621,9.8c-0.3-0.3-0.1-0.7,0.3-0.8l4.5-0.6c0.1,0,0.3-0.1,0.3-0.2 l2-4.1c0-0.1,0.1-0.1,0.1-0.2l-0.1-0.2c-0.2-0.3-0.6-0.3-0.8,0l-2,4.1C625.2,7.9,625.1,8,625,8l-4.5,0.6c-0.4,0.1-0.5,0.5-0.3,0.8 l3.3,3.2c0.1,0.1,0.2,0.3,0.1,0.4l-0.8,4.5c-0.1,0.4,0.3,0.7,0.7,0.5L623.6,17.9L623.6,17.9z" class="st1"/></g><path d="M648.6,8l4.5,0.7c0.4,0.1,0.5,0.5,0.3,0.8l-3.3,3.2c-0.1,0.1-0.2,0.3-0.1,0.4l0.8,4.5c0.1,0.4-0.3,0.7-0.7,0.5 l-4-2.1c-0.1-0.1-0.3-0.1-0.4,0l-4,2.1c-0.3,0.2-0.7-0.1-0.7-0.5l0.8-4.5c0-0.1,0-0.3-0.1-0.4l-3.3-3.2c-0.3-0.3-0.1-0.7,0.3-0.8 l4.5-0.6c0.1,0,0.3-0.1,0.3-0.2l2-4.1c0.2-0.3,0.6-0.3,0.8,0l2,4.1C648.4,7.9,648.5,8,648.6,8z" class="st0"/><g><path d="M649,8.2c0.1,0.1,0.2,0.2,0.3,0.2l4.1,0.6c0-0.2-0.2-0.3-0.4-0.3L649,8.2L649,8.2z" class="st1"/><path d="M646.8,16.3L646.8,16.3L650,18h0.1L646.8,16.3z" class="st1"/><path d="M641.7,17.9l0.8-4.5c0-0.1,0-0.3-0.1-0.4l-3.3-3.2c-0.3-0.3-0.1-0.7,0.3-0.8l4.5-0.6c0.1,0,0.3-0.1,0.3-0.2 l2-4.1c0-0.1,0.1-0.1,0.1-0.2l-0.1-0.2c-0.2-0.3-0.6-0.3-0.8,0l-2,4.1C643.3,7.9,643.2,8,643,8l-4.5,0.6c-0.4,0.1-0.5,0.5-0.3,0.8 l3.3,3.2c0.1,0.1,0.2,0.3,0.1,0.4l-0.8,4.5c-0.1,0.4,0.3,0.7,0.7,0.5L641.7,17.9L641.7,17.9z" class="st1"/></g><path d="M666.7,8l4.5,0.7c0.4,0.1,0.5,0.5,0.3,0.8l-3.3,3.2c-0.1,0.1-0.2,0.3-0.1,0.4l0.8,4.5c0.1,0.4-0.3,0.7-0.7,0.5 l-4-2.1c-0.1-0.1-0.3-0.1-0.4,0l-4,2.1c-0.3,0.2-0.7-0.1-0.7-0.5l0.8-4.5c0-0.1,0-0.3-0.1-0.4l-3.3-3.2c-0.3-0.3-0.1-0.7,0.3-0.8 l4.5-0.6c0.1,0,0.3-0.1,0.3-0.2l2-4.1c0.2-0.3,0.6-0.3,0.8,0l2,4.1C666.4,7.9,666.5,8,666.7,8z" class="st0"/><g><path d="M667.2,8.2c0.1,0.1,0.2,0.2,0.3,0.2l4.1,0.6c0-0.2-0.2-0.3-0.4-0.3L667.2,8.2L667.2,8.2z" class="st1"/><path d="M664.9,16.3L664.9,16.3l3.2,1.8h0.1L664.9,16.3z" class="st1"/><path d="M659.8,17.9l0.8-4.5c0-0.1,0-0.3-0.1-0.4l-3.3-3.2c-0.3-0.3-0.1-0.7,0.3-0.8l4.5-0.6c0.1,0,0.3-0.1,0.3-0.2 l2-4.1c0-0.1,0.1-0.1,0.1-0.2l-0.1-0.2c-0.2-0.3-0.6-0.3-0.8,0l-2,4.1c-0.1,0.1-0.2,0.2-0.3,0.2l-4.5,0.6 c-0.4,0.1-0.5,0.5-0.3,0.8l3.3,3.2c0.1,0.1,0.2,0.3,0.1,0.4l-0.8,4.5c-0.1,0.4,0.3,0.7,0.7,0.5L659.8,17.9L659.8,17.9z" class="st1"/></g></g><g><path d="M3.4,17c-0.7-0.4-1.2-0.9-1.5-1.6c-0.4-0.7-0.5-1.5-0.5-2.4V9.4c0-0.9,0.2-1.7,0.5-2.4 c0.4-0.7,0.9-1.2,1.5-1.6s1.4-0.6,2.3-0.6C6.6,4.8,7.3,5,8,5.4S9.2,6.3,9.6,7c0.4,0.7,0.5,1.5,0.5,2.4V13c0,0.9-0.2,1.7-0.5,2.4 C9.2,16.1,8.7,16.7,8,17c-0.7,0.4-1.4,0.6-2.3,0.6C4.8,17.6,4.1,17.4,3.4,17z M7.1,15.5c0.4-0.2,0.7-0.6,0.9-1 c0.2-0.4,0.3-0.9,0.3-1.5V9.4c0-0.6-0.1-1.1-0.3-1.5c-0.2-0.4-0.5-0.8-0.9-1C6.7,6.7,6.2,6.6,5.7,6.6c-0.5,0-1,0.1-1.4,0.3 c-0.4,0.2-0.7,0.6-0.9,1S3.1,8.8,3.1,9.4v3.7c0,0.6,0.1,1.1,0.3,1.5c0.2,0.4,0.5,0.8,0.9,1c0.4,0.2,0.8,0.3,1.4,0.3 C6.2,15.9,6.7,15.8,7.1,15.5z" class="st2"/><path d="M12.8,4.9h1.8v12.5h-1.8V4.9z M15.3,17.2c-0.4-0.3-0.7-0.6-0.9-1.1l0.1-1.9c0,0.4,0.1,0.7,0.2,1 c0.1,0.3,0.3,0.5,0.6,0.6s0.6,0.2,1,0.2c0.6,0,1-0.2,1.3-0.5c0.3-0.4,0.5-0.9,0.5-1.5v-1.9c0-0.7-0.2-1.2-0.5-1.5 c-0.3-0.4-0.8-0.5-1.3-0.5c-0.4,0-0.7,0.1-1,0.2c-0.3,0.1-0.5,0.3-0.6,0.6c-0.1,0.3-0.2,0.6-0.2,1L14.4,10c0.3-0.5,0.6-0.9,1.1-1.2 c0.4-0.3,0.9-0.4,1.5-0.4c0.6,0,1.2,0.1,1.6,0.4c0.5,0.3,0.8,0.7,1,1.2c0.2,0.5,0.4,1.2,0.4,2V14c0,0.8-0.1,1.4-0.4,1.9 c-0.2,0.5-0.6,1-1.1,1.2c-0.5,0.3-1,0.4-1.7,0.4C16.2,17.6,15.7,17.5,15.3,17.2z" class="st2"/><path d="M21.7,8.5h4v1.6h-4V8.5z M23.1,16.9c-0.3-0.4-0.5-1-0.5-1.8V5.9h1.8v9.2c0,0.2,0,0.4,0.1,0.5 c0.1,0.1,0.2,0.2,0.4,0.2h0.8v1.7h-1C24,17.5,23.5,17.3,23.1,16.9z" class="st2"/><path d="M29.7,17.2c-0.6-0.3-1-0.8-1.3-1.4s-0.5-1.3-0.5-2.2v-1c0-0.9,0.1-1.6,0.4-2.3c0.3-0.6,0.7-1.1,1.3-1.4 c0.6-0.3,1.2-0.5,2-0.5c0.7,0,1.4,0.2,1.9,0.6c0.5,0.4,0.9,0.9,1.2,1.6c0.3,0.7,0.4,1.6,0.4,2.5v0.6h-6v-1.4h4.4 c-0.1-0.7-0.2-1.3-0.6-1.7S32.2,10,31.7,10c-0.7,0-1.2,0.2-1.5,0.7s-0.5,1.1-0.5,1.9v1.1c0,0.7,0.2,1.3,0.6,1.7 c0.4,0.4,0.9,0.6,1.7,0.6c0.4,0,0.7-0.1,1.1-0.2c0.4-0.1,0.7-0.3,0.9-0.6l1.2,1.2c-0.4,0.4-0.9,0.8-1.5,1c-0.6,0.2-1.1,0.3-1.7,0.3 C31,17.6,30.3,17.5,29.7,17.2z" class="st2"/><path d="M37.6,8.5h1.8v9h-1.8V8.5z M43.1,12.1c0-0.6-0.2-1.1-0.5-1.5s-0.8-0.5-1.4-0.5c-0.6,0-1,0.2-1.3,0.5 c-0.3,0.3-0.5,0.7-0.5,1.3l-0.2-1.7c0.3-0.5,0.6-1,1.1-1.3c0.4-0.3,0.9-0.4,1.5-0.4c1,0,1.7,0.3,2.3,1c0.5,0.6,0.8,1.5,0.8,2.7v5.4 h-1.8V12.1z" class="st2"/><path d="M49,17.2c-0.6-0.3-1-0.8-1.3-1.4s-0.5-1.3-0.5-2.2v-1c0-0.9,0.1-1.6,0.4-2.3C48,9.7,48.4,9.2,49,8.9 c0.6-0.3,1.2-0.5,2-0.5c0.7,0,1.4,0.2,1.9,0.6c0.5,0.4,0.9,0.9,1.2,1.6c0.3,0.7,0.4,1.6,0.4,2.5v0.6h-6v-1.4h4.4 c-0.1-0.7-0.2-1.3-0.6-1.7S51.5,10,51,10c-0.7,0-1.2,0.2-1.5,0.7s-0.5,1.1-0.5,1.9v1.1c0,0.7,0.2,1.3,0.6,1.7 c0.4,0.4,0.9,0.6,1.7,0.6c0.4,0,0.7-0.1,1.1-0.2c0.4-0.1,0.7-0.3,0.9-0.6l1.2,1.2c-0.4,0.4-0.9,0.8-1.5,1c-0.6,0.2-1.1,0.3-1.7,0.3 C50.3,17.6,49.6,17.5,49,17.2z" class="st2"/><path d="M63.1,10l-4.3,5.8h4.5v1.6h-6.7V16l4.4-5.8h-4.3V8.5h6.3V10z" class="st2"/><path d="M75.7,8.5h1.8l-3.4,9h-1.3l-3.4-9h1.8l2.2,6.4L75.7,8.5z" class="st2"/><path d="M80.5,17.2c-0.6-0.3-1-0.7-1.3-1.3c-0.3-0.6-0.4-1.3-0.4-2.1v-1.5c0-0.8,0.1-1.5,0.4-2.1 c0.3-0.6,0.7-1,1.3-1.3c0.6-0.3,1.2-0.5,2-0.5c0.8,0,1.4,0.2,2,0.5c0.6,0.3,1,0.7,1.3,1.3c0.3,0.6,0.4,1.3,0.4,2.1v1.5 c0,0.8-0.1,1.5-0.4,2.1c-0.3,0.6-0.7,1-1.3,1.3c-0.6,0.3-1.2,0.5-2,0.5C81.7,17.6,81.1,17.5,80.5,17.2z M84,15.4 c0.3-0.4,0.5-0.9,0.5-1.6v-1.5c0-0.7-0.2-1.2-0.5-1.6c-0.3-0.4-0.8-0.6-1.4-0.6s-1.1,0.2-1.4,0.6c-0.3,0.4-0.5,0.9-0.5,1.6v1.5 c0,0.7,0.2,1.2,0.5,1.6c0.3,0.4,0.8,0.6,1.4,0.6S83.6,15.8,84,15.4z" class="st2"/><path d="M88,8.5h4v1.6h-4V8.5z M89.5,16.9c-0.3-0.4-0.5-1-0.5-1.8V5.9h1.8v9.2c0,0.2,0,0.4,0.1,0.5 c0.1,0.1,0.2,0.2,0.4,0.2h0.8v1.7h-1C90.3,17.5,89.8,17.3,89.5,16.9z" class="st2"/><path d="M94.5,8.5h1.8v9h-1.8V8.5z M98.8,10.2c-0.2-0.1-0.5-0.1-0.8-0.1c-0.6,0-1,0.2-1.3,0.5s-0.5,0.7-0.5,1.3 l-0.2-1.7c0.3-0.5,0.6-1,1.1-1.2c0.4-0.3,0.9-0.4,1.4-0.4c0.4,0,0.8,0.1,1.1,0.2s0.6,0.3,0.9,0.5l-1.1,1.6 C99.2,10.5,99,10.3,98.8,10.2z" class="st2"/><path d="M103.4,17.2c-0.6-0.3-1-0.8-1.3-1.4s-0.5-1.3-0.5-2.2v-1c0-0.9,0.1-1.6,0.4-2.3c0.3-0.6,0.7-1.1,1.3-1.4 c0.6-0.3,1.2-0.5,2-0.5c0.7,0,1.4,0.2,1.9,0.6c0.5,0.4,0.9,0.9,1.2,1.6c0.3,0.7,0.4,1.6,0.4,2.5v0.6h-6v-1.4h4.4 c-0.1-0.7-0.2-1.3-0.6-1.7s-0.8-0.6-1.3-0.6c-0.7,0-1.2,0.2-1.5,0.7s-0.5,1.1-0.5,1.9v1.1c0,0.7,0.2,1.3,0.6,1.7 c0.4,0.4,0.9,0.6,1.7,0.6c0.4,0,0.7-0.1,1.1-0.2c0.4-0.1,0.7-0.3,0.9-0.6l1.2,1.2c-0.4,0.4-0.9,0.8-1.5,1c-0.6,0.2-1.1,0.3-1.7,0.3 C104.7,17.6,104,17.5,103.4,17.2z" class="st2"/><g><image style="overflow:visible" width="15" height="16" transform="matrix(1 0 0 1 112 4.7)" xlink:href="4C026388.png"/><g><path d="M121.3,8.5h1.8l-3.4,9h-1.3l-3.4-9h1.8l2.2,6.4L121.3,8.5z" class="st2"/></g></g><g><image style="overflow:visible" width="9" height="19" transform="matrix(1 0 0 1 121 1.7)" xlink:href="4C02638F.png"/><g><path d="M124.9,4.9h1.8v1.8h-1.8V4.9z M124.9,8.5h1.8v9h-1.8V8.5z" class="st2"/></g></g><g><image style="overflow:visible" width="15" height="16" transform="matrix(1 0 0 1 125 4.7)" xlink:href="4C02638A.png"/><g><path d="M131,17.5c-0.5-0.1-0.9-0.3-1.3-0.5s-0.8-0.5-1.1-0.8l1-1.3c0.5,0.4,1,0.6,1.4,0.8c0.5,0.2,0.9,0.3,1.4,0.3 c0.7,0,1.2-0.1,1.6-0.3c0.3-0.2,0.5-0.5,0.5-1c0-0.3-0.1-0.5-0.3-0.6c-0.2-0.1-0.4-0.2-0.7-0.3s-0.7-0.1-1.2-0.1c0,0-0.1,0-0.1,0 s-0.1,0-0.1,0c0,0,0,0-0.1,0s0,0-0.1,0c-0.6,0-1.1-0.1-1.5-0.3c-0.4-0.1-0.7-0.4-1-0.7c-0.3-0.3-0.4-0.8-0.4-1.5s0.1-1.2,0.4-1.6 c0.3-0.4,0.6-0.7,1.2-0.9c0.5-0.2,1.2-0.3,1.9-0.3c0.5,0,0.9,0,1.3,0.1c0.4,0.1,0.8,0.2,1.2,0.4s0.8,0.4,1.1,0.6l-1.1,1.3 c-0.4-0.3-0.9-0.5-1.3-0.6c-0.4-0.1-0.9-0.2-1.3-0.2c-0.6,0-1,0.1-1.3,0.3s-0.4,0.5-0.4,0.9c0,0.2,0.1,0.4,0.3,0.5 c0.2,0.1,0.4,0.2,0.6,0.2c0.3,0,0.6,0.1,1.1,0.1c0,0,0.1,0,0.1,0s0.1,0,0.1,0c0,0,0,0,0.1,0c0,0,0,0,0.1,0c0.6,0,1.2,0.1,1.6,0.2 c0.4,0.1,0.8,0.4,1.1,0.8c0.3,0.4,0.4,0.9,0.4,1.6c0,0.6-0.1,1.2-0.4,1.6s-0.7,0.7-1.2,1c-0.6,0.2-1.3,0.3-2.1,0.3 C132,17.6,131.5,17.6,131,17.5z" class="st2"/></g></g><g><image style="overflow:visible" width="14" height="16" transform="matrix(1 0 0 1 135 4.7)" xlink:href="4C026385.png"/><g><path d="M138.9,16.9c-0.5-0.5-0.8-1.2-0.8-2.1c0-0.9,0.2-1.5,0.8-2c0.5-0.4,1.3-0.7,2.3-0.7h2.5l0.1,1.4h-2.7 c-0.5,0-0.8,0.1-1,0.3c-0.2,0.2-0.3,0.5-0.3,0.9c0,0.5,0.2,0.8,0.5,1s0.8,0.3,1.4,0.3c0.7,0,1.2-0.1,1.5-0.2s0.5-0.4,0.5-0.7 l0.2,1.3c-0.2,0.2-0.3,0.4-0.6,0.6s-0.5,0.3-0.8,0.3c-0.3,0.1-0.6,0.1-1,0.1C140.2,17.6,139.4,17.4,138.9,16.9z M143.5,11.8 c0-0.6-0.2-1-0.5-1.4s-0.8-0.5-1.3-0.5c-0.4,0-0.7,0.1-1,0.2c-0.3,0.1-0.6,0.3-0.9,0.5l-1.3-0.9c0.3-0.4,0.8-0.7,1.3-1 c0.6-0.2,1.2-0.3,1.9-0.3c0.7,0,1.4,0.1,1.9,0.4c0.5,0.3,0.9,0.6,1.2,1.1c0.3,0.5,0.4,1.1,0.4,1.8v5.8h-1.7V11.8z" class="st2"/></g></g><path d="M154.1,17.2c-0.6-0.3-1-0.7-1.3-1.3c-0.3-0.6-0.5-1.3-0.5-2.1v-1.5c0-0.8,0.2-1.5,0.5-2.1 c0.3-0.6,0.7-1,1.3-1.3c0.6-0.3,1.3-0.5,2.1-0.5c0.5,0,0.9,0.1,1.3,0.2c0.4,0.1,0.8,0.3,1.1,0.5c0.3,0.2,0.6,0.5,0.8,0.8l-1.3,1.1 c-0.3-0.3-0.5-0.5-0.9-0.7c-0.3-0.2-0.7-0.2-1.1-0.2c-0.7,0-1.2,0.2-1.6,0.6s-0.6,0.9-0.6,1.6v1.5c0,0.7,0.2,1.3,0.6,1.6 c0.4,0.4,0.9,0.6,1.6,0.6c0.4,0,0.7-0.1,1.1-0.2c0.3-0.2,0.6-0.4,0.9-0.7l1.3,1.2c-0.2,0.3-0.5,0.6-0.8,0.8s-0.7,0.4-1.1,0.5 c-0.4,0.1-0.8,0.2-1.3,0.2C155.4,17.6,154.7,17.5,154.1,17.2z" class="st2"/><path d="M161.8,16.9c-0.5-0.5-0.8-1.2-0.8-2.1c0-0.9,0.2-1.5,0.8-2c0.5-0.4,1.3-0.7,2.3-0.7h2.5l0.1,1.4H164 c-0.5,0-0.8,0.1-1,0.3c-0.2,0.2-0.3,0.5-0.3,0.9c0,0.5,0.2,0.8,0.5,1s0.8,0.3,1.4,0.3c0.7,0,1.2-0.1,1.5-0.2s0.5-0.4,0.5-0.7 l0.2,1.3c-0.2,0.2-0.3,0.4-0.6,0.6s-0.5,0.3-0.8,0.3c-0.3,0.1-0.6,0.1-1,0.1C163.2,17.6,162.3,17.4,161.8,16.9z M166.5,11.8 c0-0.6-0.2-1-0.5-1.4s-0.8-0.5-1.3-0.5c-0.4,0-0.7,0.1-1,0.2c-0.3,0.1-0.6,0.3-0.9,0.5l-1.3-0.9c0.3-0.4,0.8-0.7,1.3-1 c0.6-0.2,1.2-0.3,1.9-0.3c0.7,0,1.4,0.1,1.9,0.4c0.5,0.3,0.9,0.6,1.2,1.1c0.3,0.5,0.4,1.1,0.4,1.8v5.8h-1.7V11.8z" class="st2"/><path d="M170.8,8.5h1.8v9h-1.8V8.5z M176.2,12.1c0-0.6-0.2-1.1-0.5-1.5s-0.8-0.5-1.4-0.5c-0.6,0-1,0.2-1.3,0.5 c-0.3,0.3-0.5,0.7-0.5,1.3l-0.2-1.7c0.3-0.5,0.6-1,1.1-1.3c0.4-0.3,0.9-0.4,1.5-0.4c1,0,1.7,0.3,2.3,1c0.5,0.6,0.8,1.5,0.8,2.7v5.4 h-1.8V12.1z" class="st2"/><path d="M181.1,16.9c-0.5-0.5-0.8-1.2-0.8-2.1c0-0.9,0.2-1.5,0.8-2c0.5-0.4,1.3-0.7,2.3-0.7h2.5l0.1,1.4h-2.7 c-0.5,0-0.8,0.1-1,0.3c-0.2,0.2-0.3,0.5-0.3,0.9c0,0.5,0.2,0.8,0.5,1s0.8,0.3,1.4,0.3c0.7,0,1.2-0.1,1.5-0.2s0.5-0.4,0.5-0.7 l0.2,1.3c-0.2,0.2-0.3,0.4-0.6,0.6s-0.5,0.3-0.8,0.3c-0.3,0.1-0.6,0.1-1,0.1C182.4,17.6,181.6,17.4,181.1,16.9z M185.7,11.8 c0-0.6-0.2-1-0.5-1.4s-0.8-0.5-1.3-0.5c-0.4,0-0.7,0.1-1,0.2c-0.3,0.1-0.6,0.3-0.9,0.5l-1.3-0.9c0.3-0.4,0.8-0.7,1.3-1 c0.6-0.2,1.2-0.3,1.9-0.3c0.7,0,1.4,0.1,1.9,0.4c0.5,0.3,0.9,0.6,1.2,1.1c0.3,0.5,0.4,1.1,0.4,1.8v5.8h-1.7V11.8z" class="st2"/><path d="M191.2,17.2c-0.5-0.3-0.8-0.7-1.1-1.2c-0.2-0.5-0.4-1.2-0.4-2v-2c0-0.8,0.1-1.4,0.4-2c0.2-0.5,0.6-1,1-1.2 c0.5-0.3,1-0.4,1.6-0.4c0.5,0,1,0.1,1.5,0.4c0.4,0.3,0.8,0.7,1.1,1.2l-0.2,1.8c0-0.4-0.1-0.7-0.2-1c-0.1-0.3-0.3-0.5-0.6-0.6 c-0.3-0.1-0.6-0.2-1-0.2c-0.6,0-1,0.2-1.3,0.5c-0.3,0.4-0.5,0.9-0.5,1.5V14c0,0.7,0.2,1.2,0.5,1.5c0.3,0.4,0.8,0.5,1.3,0.5 c0.4,0,0.7-0.1,1-0.2s0.5-0.4,0.6-0.6c0.1-0.3,0.2-0.6,0.2-1l0.1,1.9c-0.2,0.4-0.5,0.8-0.9,1.1s-0.9,0.4-1.5,0.4 C192.3,17.6,191.7,17.5,191.2,17.2z M195.2,4.9h1.8v12.5h-1.8V4.9z" class="st2"/><path d="M199.6,4.9h1.8v1.8h-1.8V4.9z M199.6,8.5h1.8v9h-1.8V8.5z" class="st2"/><path d="M205.6,17.2c-0.6-0.3-1-0.8-1.3-1.4s-0.5-1.3-0.5-2.2v-1c0-0.9,0.1-1.6,0.4-2.3c0.3-0.6,0.7-1.1,1.3-1.4 c0.6-0.3,1.2-0.5,2-0.5c0.7,0,1.4,0.2,1.9,0.6c0.5,0.4,0.9,0.9,1.2,1.6c0.3,0.7,0.4,1.6,0.4,2.5v0.6h-6v-1.4h4.4 c-0.1-0.7-0.2-1.3-0.6-1.7s-0.8-0.6-1.3-0.6c-0.7,0-1.2,0.2-1.5,0.7s-0.5,1.1-0.5,1.9v1.1c0,0.7,0.2,1.3,0.6,1.7 c0.4,0.4,0.9,0.6,1.7,0.6c0.4,0,0.7-0.1,1.1-0.2c0.4-0.1,0.7-0.3,0.9-0.6l1.2,1.2c-0.4,0.4-0.9,0.8-1.5,1c-0.6,0.2-1.1,0.3-1.7,0.3 C206.9,17.6,206.2,17.5,205.6,17.2z" class="st2"/><path d="M213.5,8.5h1.8v9h-1.8V8.5z M218.9,12.1c0-0.6-0.2-1.1-0.5-1.5s-0.8-0.5-1.4-0.5c-0.6,0-1,0.2-1.3,0.5 c-0.3,0.3-0.5,0.7-0.5,1.3l-0.2-1.7c0.3-0.5,0.6-1,1.1-1.3c0.4-0.3,0.9-0.4,1.5-0.4c1,0,1.7,0.3,2.3,1c0.5,0.6,0.8,1.5,0.8,2.7v5.4 h-1.8V12.1z" class="st2"/><path d="M229.6,17.2c-0.6-0.3-1-0.7-1.3-1.3c-0.3-0.6-0.5-1.3-0.5-2.1v-1.5c0-0.8,0.2-1.5,0.5-2.1 c0.3-0.6,0.7-1,1.3-1.3c0.6-0.3,1.3-0.5,2.1-0.5c0.5,0,0.9,0.1,1.3,0.2c0.4,0.1,0.8,0.3,1.1,0.5c0.3,0.2,0.6,0.5,0.8,0.8l-1.3,1.1 c-0.3-0.3-0.5-0.5-0.9-0.7c-0.3-0.2-0.7-0.2-1.1-0.2c-0.7,0-1.2,0.2-1.6,0.6s-0.6,0.9-0.6,1.6v1.5c0,0.7,0.2,1.3,0.6,1.6 c0.4,0.4,0.9,0.6,1.6,0.6c0.4,0,0.7-0.1,1.1-0.2c0.3-0.2,0.6-0.4,0.9-0.7l1.3,1.2c-0.2,0.3-0.5,0.6-0.8,0.8s-0.7,0.4-1.1,0.5 c-0.4,0.1-0.8,0.2-1.3,0.2C230.9,17.6,230.2,17.5,229.6,17.2z" class="st2"/><path d="M238.4,17.2c-0.6-0.3-1-0.7-1.3-1.3c-0.3-0.6-0.4-1.3-0.4-2.1v-1.5c0-0.8,0.1-1.5,0.4-2.1 c0.3-0.6,0.7-1,1.3-1.3c0.6-0.3,1.2-0.5,2-0.5c0.8,0,1.4,0.2,2,0.5c0.6,0.3,1,0.7,1.3,1.3c0.3,0.6,0.4,1.3,0.4,2.1v1.5 c0,0.8-0.1,1.5-0.4,2.1c-0.3,0.6-0.7,1-1.3,1.3c-0.6,0.3-1.2,0.5-2,0.5C239.6,17.6,238.9,17.5,238.4,17.2z M241.8,15.4 c0.3-0.4,0.5-0.9,0.5-1.6v-1.5c0-0.7-0.2-1.2-0.5-1.6c-0.3-0.4-0.8-0.6-1.4-0.6s-1.1,0.2-1.4,0.6c-0.3,0.4-0.5,0.9-0.5,1.6v1.5 c0,0.7,0.2,1.2,0.5,1.6c0.3,0.4,0.8,0.6,1.4,0.6S241.4,15.8,241.8,15.4z" class="st2"/><path d="M246.5,8.5h1.8v9h-1.8V8.5z M251.9,12.1c0-0.6-0.2-1.1-0.5-1.5c-0.3-0.3-0.8-0.5-1.3-0.5c-0.6,0-1,0.2-1.3,0.5 c-0.3,0.3-0.5,0.7-0.5,1.3l-0.2-1.7c0.3-0.5,0.6-1,1.1-1.3c0.4-0.3,0.9-0.4,1.5-0.4c0.6,0,1.2,0.1,1.6,0.4c0.4,0.3,0.8,0.7,1,1.2 c0.2,0.5,0.3,1.2,0.3,2v5.4h-1.8V12.1z M257.2,12.1c0-0.6-0.2-1.1-0.5-1.5s-0.8-0.5-1.4-0.5c-0.5,0-1,0.2-1.3,0.5s-0.4,0.8-0.4,1.4 l-0.4-1.7c0.3-0.6,0.7-1.1,1.1-1.4c0.5-0.3,1-0.5,1.5-0.5c0.6,0,1.2,0.1,1.7,0.4s0.8,0.7,1,1.2c0.2,0.5,0.4,1.2,0.4,2v5.4h-1.8 V12.1z" class="st2"/><path d="M261.7,8.5h1.8v9h-1.8V8.5z M267,12.1c0-0.6-0.2-1.1-0.5-1.5c-0.3-0.3-0.8-0.5-1.3-0.5c-0.6,0-1,0.2-1.3,0.5 c-0.3,0.3-0.5,0.7-0.5,1.3l-0.2-1.7c0.3-0.5,0.6-1,1.1-1.3c0.4-0.3,0.9-0.4,1.5-0.4c0.6,0,1.2,0.1,1.6,0.4c0.4,0.3,0.8,0.7,1,1.2 c0.2,0.5,0.3,1.2,0.3,2v5.4H267V12.1z M272.4,12.1c0-0.6-0.2-1.1-0.5-1.5s-0.8-0.5-1.4-0.5c-0.5,0-1,0.2-1.3,0.5s-0.4,0.8-0.4,1.4 l-0.4-1.7c0.3-0.6,0.7-1.1,1.1-1.4c0.5-0.3,1-0.5,1.5-0.5c0.6,0,1.2,0.1,1.7,0.4s0.8,0.7,1,1.2c0.2,0.5,0.4,1.2,0.4,2v5.4h-1.8 V12.1z" class="st2"/><path d="M278.3,17.2c-0.6-0.3-1-0.8-1.3-1.4s-0.5-1.3-0.5-2.2v-1c0-0.9,0.1-1.6,0.4-2.3c0.3-0.6,0.7-1.1,1.3-1.4 c0.6-0.3,1.2-0.5,2-0.5c0.7,0,1.4,0.2,1.9,0.6c0.5,0.4,0.9,0.9,1.2,1.6c0.3,0.7,0.4,1.6,0.4,2.5v0.6h-6v-1.4h4.4 c-0.1-0.7-0.2-1.3-0.6-1.7s-0.8-0.6-1.3-0.6c-0.7,0-1.2,0.2-1.5,0.7s-0.5,1.1-0.5,1.9v1.1c0,0.7,0.2,1.3,0.6,1.7 c0.4,0.4,0.9,0.6,1.7,0.6c0.4,0,0.7-0.1,1.1-0.2c0.4-0.1,0.7-0.3,0.9-0.6l1.2,1.2c-0.4,0.4-0.9,0.8-1.5,1c-0.6,0.2-1.1,0.3-1.7,0.3 C279.6,17.6,278.9,17.5,278.3,17.2z" class="st2"/><path d="M291,8.5h1.8v12.6H291V8.5z M293.6,17.2c-0.4-0.3-0.7-0.6-0.9-1.1l0.1-1.9c0,0.4,0.1,0.7,0.2,1 c0.1,0.3,0.3,0.5,0.6,0.6s0.6,0.2,1,0.2c0.6,0,1-0.2,1.3-0.5c0.3-0.4,0.5-0.9,0.5-1.5v-1.9c0-0.7-0.2-1.2-0.5-1.5 c-0.3-0.4-0.8-0.5-1.3-0.5c-0.4,0-0.7,0.1-1,0.2c-0.3,0.1-0.5,0.3-0.6,0.6c-0.1,0.3-0.2,0.6-0.2,1l-0.2-1.7 c0.3-0.5,0.6-0.9,1.1-1.2c0.4-0.3,0.9-0.4,1.5-0.4c0.6,0,1.2,0.1,1.6,0.4c0.5,0.3,0.8,0.7,1,1.2c0.2,0.5,0.4,1.2,0.4,2V14 c0,0.8-0.1,1.4-0.4,1.9c-0.2,0.5-0.6,1-1.1,1.2c-0.5,0.3-1,0.4-1.7,0.4C294.5,17.6,294,17.5,293.6,17.2z" class="st2"/><path d="M302.4,15.2c0,0.2,0,0.4,0.1,0.5c0.1,0.1,0.2,0.2,0.4,0.2h0.8v1.7h-1c-0.7,0-1.2-0.2-1.5-0.6 c-0.4-0.4-0.5-1-0.5-1.8V4.9h1.8V15.2z" class="st2"/><path d="M307.4,14c0,0.6,0.2,1.1,0.5,1.5c0.3,0.3,0.8,0.5,1.3,0.5c0.6,0,1-0.2,1.3-0.5c0.3-0.3,0.5-0.7,0.5-1.3 l0.1,1.9c-0.2,0.4-0.5,0.8-0.9,1.1s-0.9,0.4-1.5,0.4c-1,0-1.8-0.3-2.3-1c-0.5-0.6-0.8-1.5-0.8-2.7V8.5h1.8V14z M311,8.5h1.8v9H311 V8.5z" class="st2"/><path d="M317.1,17.5c-0.5-0.1-0.9-0.3-1.3-0.5s-0.8-0.5-1.1-0.8l1-1.3c0.5,0.4,1,0.6,1.4,0.8c0.5,0.2,0.9,0.3,1.4,0.3 c0.7,0,1.2-0.1,1.6-0.3c0.3-0.2,0.5-0.5,0.5-1c0-0.3-0.1-0.5-0.3-0.6c-0.2-0.1-0.4-0.2-0.7-0.3s-0.7-0.1-1.2-0.1c0,0-0.1,0-0.1,0 s-0.1,0-0.1,0c0,0,0,0-0.1,0s0,0-0.1,0c-0.6,0-1.1-0.1-1.5-0.3c-0.4-0.1-0.7-0.4-1-0.7c-0.3-0.3-0.4-0.8-0.4-1.5s0.1-1.2,0.4-1.6 c0.3-0.4,0.6-0.7,1.2-0.9c0.5-0.2,1.2-0.3,1.9-0.3c0.5,0,0.9,0,1.3,0.1c0.4,0.1,0.8,0.2,1.2,0.4s0.8,0.4,1.1,0.6l-1.1,1.3 c-0.4-0.3-0.9-0.5-1.3-0.6c-0.4-0.1-0.9-0.2-1.3-0.2c-0.6,0-1,0.1-1.3,0.3s-0.4,0.5-0.4,0.9c0,0.2,0.1,0.4,0.3,0.5 c0.2,0.1,0.4,0.2,0.6,0.2c0.3,0,0.6,0.1,1.1,0.1c0,0,0.1,0,0.1,0s0.1,0,0.1,0c0,0,0,0,0.1,0c0,0,0,0,0.1,0c0.6,0,1.2,0.1,1.6,0.2 c0.4,0.1,0.8,0.4,1.1,0.8c0.3,0.4,0.4,0.9,0.4,1.6c0,0.6-0.1,1.2-0.4,1.6s-0.7,0.7-1.2,1c-0.6,0.2-1.3,0.3-2.1,0.3 C318.1,17.6,317.6,17.6,317.1,17.5z" class="st2"/><path d="M330.5,17.2c-0.5-0.3-0.8-0.7-1.1-1.2c-0.2-0.5-0.4-1.2-0.4-2v-2c0-0.8,0.1-1.4,0.4-2c0.2-0.5,0.6-1,1-1.2 c0.5-0.3,1-0.4,1.6-0.4c0.5,0,1,0.1,1.5,0.4c0.4,0.3,0.8,0.7,1.1,1.2l-0.2,1.8c0-0.4-0.1-0.7-0.2-1c-0.1-0.3-0.3-0.5-0.6-0.6 c-0.3-0.1-0.6-0.2-1-0.2c-0.6,0-1,0.2-1.3,0.5c-0.3,0.4-0.5,0.9-0.5,1.5V14c0,0.7,0.2,1.2,0.5,1.5c0.3,0.4,0.8,0.5,1.3,0.5 c0.4,0,0.7-0.1,1-0.2s0.5-0.4,0.6-0.6c0.1-0.3,0.2-0.6,0.2-1l0.1,1.9c-0.2,0.4-0.5,0.8-0.9,1.1s-0.9,0.4-1.5,0.4 C331.5,17.6,331,17.5,330.5,17.2z M334.4,4.9h1.8v12.5h-1.8V4.9z" class="st2"/><path d="M340.4,17.2c-0.6-0.3-1-0.8-1.3-1.4s-0.5-1.3-0.5-2.2v-1c0-0.9,0.1-1.6,0.4-2.3c0.3-0.6,0.7-1.1,1.3-1.4 c0.6-0.3,1.2-0.5,2-0.5c0.7,0,1.4,0.2,1.9,0.6c0.5,0.4,0.9,0.9,1.2,1.6c0.3,0.7,0.4,1.6,0.4,2.5v0.6h-6v-1.4h4.4 c-0.1-0.7-0.2-1.3-0.6-1.7s-0.8-0.6-1.3-0.6c-0.7,0-1.2,0.2-1.5,0.7s-0.5,1.1-0.5,1.9v1.1c0,0.7,0.2,1.3,0.6,1.7 c0.4,0.4,0.9,0.6,1.7,0.6c0.4,0,0.7-0.1,1.1-0.2c0.4-0.1,0.7-0.3,0.9-0.6l1.2,1.2c-0.4,0.4-0.9,0.8-1.5,1c-0.6,0.2-1.1,0.3-1.7,0.3 C341.7,17.6,341,17.5,340.4,17.2z" class="st2"/><path d="M356,17.5h-1.8V6.9L352.5,8V6.1l1.8-1.2h1.8V17.5z" class="st2"/><path d="M358.7,15.6h1.8v1.8h-1.8V15.6z" class="st2"/><path d="M363.3,16.7c-0.6-0.6-0.9-1.5-0.9-2.6V8.4c0-1.1,0.3-2,0.9-2.6s1.5-0.9,2.7-0.9c1.2,0,2.1,0.3,2.7,0.9 s0.9,1.5,0.9,2.6v5.7c0,1.1-0.3,2-0.9,2.6c-0.6,0.6-1.5,0.9-2.7,0.9C364.8,17.6,363.9,17.3,363.3,16.7z M367.3,15.5 c0.3-0.3,0.4-0.8,0.4-1.4V8.4c0-0.6-0.1-1.1-0.4-1.4c-0.3-0.3-0.8-0.5-1.4-0.5c-0.6,0-1.1,0.2-1.4,0.5c-0.3,0.3-0.4,0.8-0.4,1.4 v5.7c0,0.6,0.1,1.1,0.4,1.4c0.3,0.3,0.8,0.5,1.4,0.5C366.6,15.9,367,15.8,367.3,15.5z" class="st2"/><path d="M372.7,16.7c-0.6-0.6-0.9-1.5-0.9-2.6V8.4c0-1.1,0.3-2,0.9-2.6s1.5-0.9,2.7-0.9c1.2,0,2.1,0.3,2.7,0.9 s0.9,1.5,0.9,2.6v5.7c0,1.1-0.3,2-0.9,2.6c-0.6,0.6-1.5,0.9-2.7,0.9C374.2,17.6,373.3,17.3,372.7,16.7z M376.7,15.5 c0.3-0.3,0.4-0.8,0.4-1.4V8.4c0-0.6-0.1-1.1-0.4-1.4c-0.3-0.3-0.8-0.5-1.4-0.5c-0.6,0-1.1,0.2-1.4,0.5c-0.3,0.3-0.4,0.8-0.4,1.4 v5.7c0,0.6,0.1,1.1,0.4,1.4c0.3,0.3,0.8,0.5,1.4,0.5C376,15.9,376.4,15.8,376.7,15.5z" class="st2"/><path d="M382.1,16.7c-0.6-0.6-0.9-1.5-0.9-2.6V8.4c0-1.1,0.3-2,0.9-2.6s1.5-0.9,2.7-0.9c1.2,0,2.1,0.3,2.7,0.9 s0.9,1.5,0.9,2.6v5.7c0,1.1-0.3,2-0.9,2.6c-0.6,0.6-1.5,0.9-2.7,0.9C383.6,17.6,382.7,17.3,382.1,16.7z M386.1,15.5 c0.3-0.3,0.4-0.8,0.4-1.4V8.4c0-0.6-0.1-1.1-0.4-1.4c-0.3-0.3-0.8-0.5-1.4-0.5c-0.6,0-1.1,0.2-1.4,0.5c-0.3,0.3-0.4,0.8-0.4,1.4 v5.7c0,0.6,0.1,1.1,0.4,1.4c0.3,0.3,0.8,0.5,1.4,0.5C385.4,15.9,385.8,15.8,386.1,15.5z" class="st2"/><path d="M390.2,15.6h1.8v1.8h-1.8V15.6z" class="st2"/><path d="M394.8,16.7c-0.6-0.6-0.9-1.5-0.9-2.6V8.4c0-1.1,0.3-2,0.9-2.6s1.5-0.9,2.7-0.9c1.2,0,2.1,0.3,2.7,0.9 s0.9,1.5,0.9,2.6v5.7c0,1.1-0.3,2-0.9,2.6c-0.6,0.6-1.5,0.9-2.7,0.9C396.3,17.6,395.4,17.3,394.8,16.7z M398.8,15.5 c0.3-0.3,0.4-0.8,0.4-1.4V8.4c0-0.6-0.1-1.1-0.4-1.4c-0.3-0.3-0.8-0.5-1.4-0.5c-0.6,0-1.1,0.2-1.4,0.5c-0.3,0.3-0.4,0.8-0.4,1.4 v5.7c0,0.6,0.1,1.1,0.4,1.4c0.3,0.3,0.8,0.5,1.4,0.5C398.1,15.9,398.5,15.8,398.8,15.5z" class="st2"/><path d="M404.2,16.7c-0.6-0.6-0.9-1.5-0.9-2.6V8.4c0-1.1,0.3-2,0.9-2.6s1.5-0.9,2.7-0.9c1.2,0,2.1,0.3,2.7,0.9 s0.9,1.5,0.9,2.6v5.7c0,1.1-0.3,2-0.9,2.6c-0.6,0.6-1.5,0.9-2.7,0.9C405.7,17.6,404.8,17.3,404.2,16.7z M408.2,15.5 c0.3-0.3,0.4-0.8,0.4-1.4V8.4c0-0.6-0.1-1.1-0.4-1.4c-0.3-0.3-0.8-0.5-1.4-0.5c-0.6,0-1.1,0.2-1.4,0.5c-0.3,0.3-0.4,0.8-0.4,1.4 v5.7c0,0.6,0.1,1.1,0.4,1.4c0.3,0.3,0.8,0.5,1.4,0.5C407.5,15.9,407.9,15.8,408.2,15.5z" class="st2"/><path d="M413.6,16.7c-0.6-0.6-0.9-1.5-0.9-2.6V8.4c0-1.1,0.3-2,0.9-2.6s1.5-0.9,2.7-0.9c1.2,0,2.1,0.3,2.7,0.9 s0.9,1.5,0.9,2.6v5.7c0,1.1-0.3,2-0.9,2.6c-0.6,0.6-1.5,0.9-2.7,0.9C415.1,17.6,414.2,17.3,413.6,16.7z M417.6,15.5 c0.3-0.3,0.4-0.8,0.4-1.4V8.4c0-0.6-0.1-1.1-0.4-1.4c-0.3-0.3-0.8-0.5-1.4-0.5c-0.6,0-1.1,0.2-1.4,0.5c-0.3,0.3-0.4,0.8-0.4,1.4 v5.7c0,0.6,0.1,1.1,0.4,1.4c0.3,0.3,0.8,0.5,1.4,0.5C416.9,15.9,417.3,15.8,417.6,15.5z" class="st2"/><path d="M428.4,17.2c-0.5-0.3-0.8-0.7-1.1-1.2c-0.2-0.5-0.4-1.2-0.4-2v-2c0-0.8,0.1-1.4,0.4-2c0.2-0.5,0.6-1,1-1.2 c0.5-0.3,1-0.4,1.6-0.4c0.5,0,1,0.1,1.5,0.4c0.4,0.3,0.8,0.7,1.1,1.2l-0.2,1.8c0-0.4-0.1-0.7-0.2-1c-0.1-0.3-0.3-0.5-0.6-0.6 c-0.3-0.1-0.6-0.2-1-0.2c-0.6,0-1,0.2-1.3,0.5c-0.3,0.4-0.5,0.9-0.5,1.5V14c0,0.7,0.2,1.2,0.5,1.5c0.3,0.4,0.8,0.5,1.3,0.5 c0.4,0,0.7-0.1,1-0.2c0.3-0.1,0.5-0.4,0.6-0.6c0.1-0.3,0.2-0.6,0.2-1l0.1,1.9c-0.2,0.4-0.5,0.8-0.9,1.1s-0.9,0.4-1.5,0.4 C429.4,17.6,428.9,17.5,428.4,17.2z M432.3,4.9h1.8v12.5h-1.8V4.9z" class="st2"/><path d="M438.3,17.2c-0.6-0.3-1-0.8-1.3-1.4s-0.5-1.3-0.5-2.2v-1c0-0.9,0.1-1.6,0.4-2.3c0.3-0.6,0.7-1.1,1.3-1.4 c0.6-0.3,1.2-0.5,2-0.5c0.7,0,1.4,0.2,1.9,0.6c0.5,0.4,0.9,0.9,1.2,1.6c0.3,0.7,0.4,1.6,0.4,2.5v0.6h-6v-1.4h4.4 c-0.1-0.7-0.2-1.3-0.6-1.7s-0.8-0.6-1.3-0.6c-0.7,0-1.2,0.2-1.5,0.7s-0.5,1.1-0.5,1.9v1.1c0,0.7,0.2,1.3,0.6,1.7 c0.4,0.4,0.9,0.6,1.7,0.6c0.4,0,0.7-0.1,1.1-0.2c0.4-0.1,0.7-0.3,0.9-0.6l1.2,1.2c-0.4,0.4-0.9,0.8-1.5,1c-0.6,0.2-1.1,0.3-1.7,0.3 C439.6,17.6,438.9,17.5,438.3,17.2z" class="st2"/><path d="M452.5,17.2c-0.6-0.3-1-0.7-1.3-1.3c-0.3-0.6-0.5-1.3-0.5-2.1v-1.5c0-0.8,0.2-1.5,0.5-2.1 c0.3-0.6,0.7-1,1.3-1.3c0.6-0.3,1.3-0.5,2.1-0.5c0.5,0,0.9,0.1,1.3,0.2c0.4,0.1,0.8,0.3,1.1,0.5c0.3,0.2,0.6,0.5,0.8,0.8l-1.3,1.1 c-0.3-0.3-0.5-0.5-0.9-0.7c-0.3-0.2-0.7-0.2-1.1-0.2c-0.7,0-1.2,0.2-1.6,0.6c-0.4,0.4-0.6,0.9-0.6,1.6v1.5c0,0.7,0.2,1.3,0.6,1.6 c0.4,0.4,0.9,0.6,1.6,0.6c0.4,0,0.7-0.1,1.1-0.2c0.3-0.2,0.6-0.4,0.9-0.7l1.3,1.2c-0.2,0.3-0.5,0.6-0.8,0.8 c-0.3,0.2-0.7,0.4-1.1,0.5c-0.4,0.1-0.8,0.2-1.3,0.2C453.8,17.6,453.1,17.5,452.5,17.2z" class="st2"/><path d="M461.5,15.2c0,0.2,0,0.4,0.1,0.5s0.2,0.2,0.4,0.2h0.8v1.7h-1c-0.7,0-1.2-0.2-1.5-0.6s-0.5-1-0.5-1.8V4.9h1.8 V15.2z" class="st2"/><path d="M464.9,4.9h1.8v1.8h-1.8V4.9z M464.9,8.5h1.8v9h-1.8V8.5z" class="st2"/><path d="M470.9,17.2c-0.6-0.3-1-0.8-1.3-1.4s-0.5-1.3-0.5-2.2v-1c0-0.9,0.1-1.6,0.4-2.3c0.3-0.6,0.7-1.1,1.3-1.4 c0.6-0.3,1.2-0.5,2-0.5c0.7,0,1.4,0.2,1.9,0.6c0.5,0.4,0.9,0.9,1.2,1.6c0.3,0.7,0.4,1.6,0.4,2.5v0.6h-6v-1.4h4.4 c-0.1-0.7-0.2-1.3-0.6-1.7s-0.8-0.6-1.3-0.6c-0.7,0-1.2,0.2-1.5,0.7s-0.5,1.1-0.5,1.9v1.1c0,0.7,0.2,1.3,0.6,1.7 c0.4,0.4,0.9,0.6,1.7,0.6c0.4,0,0.7-0.1,1.1-0.2c0.4-0.1,0.7-0.3,0.9-0.6l1.2,1.2c-0.4,0.4-0.9,0.8-1.5,1c-0.6,0.2-1.1,0.3-1.7,0.3 C472.2,17.6,471.5,17.5,470.9,17.2z" class="st2"/><path d="M478.8,8.5h1.8v9h-1.8V8.5z M484.2,12.1c0-0.6-0.2-1.1-0.5-1.5c-0.3-0.3-0.8-0.5-1.4-0.5c-0.6,0-1,0.2-1.3,0.5 c-0.3,0.3-0.5,0.7-0.5,1.3l-0.2-1.7c0.3-0.5,0.6-1,1.1-1.3c0.4-0.3,0.9-0.4,1.5-0.4c1,0,1.7,0.3,2.3,1c0.5,0.6,0.8,1.5,0.8,2.7v5.4 h-1.8V12.1z" class="st2"/><path d="M488,8.5h4v1.6h-4V8.5z M489.4,16.9c-0.3-0.4-0.5-1-0.5-1.8V5.9h1.8v9.2c0,0.2,0,0.4,0.1,0.5 c0.1,0.1,0.2,0.2,0.4,0.2h0.8v1.7h-1C490.3,17.5,489.7,17.3,489.4,16.9z" class="st2"/><path d="M496.1,17.5c-0.5-0.1-0.9-0.3-1.3-0.5c-0.4-0.2-0.8-0.5-1.1-0.8l1-1.3c0.5,0.4,1,0.6,1.4,0.8 c0.5,0.2,0.9,0.3,1.4,0.3c0.7,0,1.2-0.1,1.6-0.3s0.5-0.5,0.5-1c0-0.3-0.1-0.5-0.3-0.6c-0.2-0.1-0.4-0.2-0.7-0.3 c-0.3,0-0.7-0.1-1.2-0.1c0,0-0.1,0-0.1,0s-0.1,0-0.1,0c0,0,0,0-0.1,0c0,0,0,0-0.1,0c-0.6,0-1.1-0.1-1.5-0.3c-0.4-0.1-0.7-0.4-1-0.7 c-0.3-0.3-0.4-0.8-0.4-1.5s0.1-1.2,0.4-1.6c0.3-0.4,0.6-0.7,1.2-0.9c0.5-0.2,1.2-0.3,1.9-0.3c0.5,0,0.9,0,1.3,0.1 c0.4,0.1,0.8,0.2,1.2,0.4c0.4,0.2,0.8,0.4,1.1,0.6l-1.1,1.3c-0.4-0.3-0.9-0.5-1.3-0.6c-0.4-0.1-0.9-0.2-1.3-0.2 c-0.6,0-1,0.1-1.3,0.3s-0.4,0.5-0.4,0.9c0,0.2,0.1,0.4,0.3,0.5c0.2,0.1,0.4,0.2,0.6,0.2c0.3,0,0.6,0.1,1.1,0.1c0,0,0.1,0,0.1,0 s0.1,0,0.1,0c0,0,0,0,0.1,0c0,0,0,0,0.1,0c0.6,0,1.2,0.1,1.6,0.2c0.4,0.1,0.8,0.4,1.1,0.8c0.3,0.4,0.4,0.9,0.4,1.6 c0,0.6-0.1,1.2-0.4,1.6c-0.3,0.4-0.7,0.7-1.2,1c-0.6,0.2-1.3,0.3-2.1,0.3C497.1,17.6,496.6,17.6,496.1,17.5z" class="st2"/><path d="M510,17.5c-0.5-0.1-0.9-0.3-1.3-0.5c-0.4-0.2-0.8-0.5-1.1-0.8l1-1.3c0.5,0.4,1,0.6,1.4,0.8 c0.5,0.2,0.9,0.3,1.4,0.3c0.7,0,1.2-0.1,1.6-0.3s0.5-0.5,0.5-1c0-0.3-0.1-0.5-0.3-0.6c-0.2-0.1-0.4-0.2-0.7-0.3 c-0.3,0-0.7-0.1-1.2-0.1c0,0-0.1,0-0.1,0s-0.1,0-0.1,0c0,0,0,0-0.1,0c0,0,0,0-0.1,0c-0.6,0-1.1-0.1-1.5-0.3c-0.4-0.1-0.7-0.4-1-0.7 c-0.3-0.3-0.4-0.8-0.4-1.5s0.1-1.2,0.4-1.6c0.3-0.4,0.6-0.7,1.2-0.9c0.5-0.2,1.2-0.3,1.9-0.3c0.5,0,0.9,0,1.3,0.1 c0.4,0.1,0.8,0.2,1.2,0.4c0.4,0.2,0.8,0.4,1.1,0.6l-1.1,1.3c-0.4-0.3-0.9-0.5-1.3-0.6c-0.4-0.1-0.9-0.2-1.3-0.2 c-0.6,0-1,0.1-1.3,0.3s-0.4,0.5-0.4,0.9c0,0.2,0.1,0.4,0.3,0.5c0.2,0.1,0.4,0.2,0.6,0.2c0.3,0,0.6,0.1,1.1,0.1c0,0,0.1,0,0.1,0 s0.1,0,0.1,0c0,0,0,0,0.1,0c0,0,0,0,0.1,0c0.6,0,1.2,0.1,1.6,0.2c0.4,0.1,0.8,0.4,1.1,0.8c0.3,0.4,0.4,0.9,0.4,1.6 c0,0.6-0.1,1.2-0.4,1.6c-0.3,0.4-0.7,0.7-1.2,1c-0.6,0.2-1.3,0.3-2.1,0.3C511,17.6,510.5,17.6,510,17.5z" class="st2"/><path d="M517.9,16.9c-0.5-0.5-0.8-1.2-0.8-2.1c0-0.9,0.3-1.5,0.8-2c0.5-0.4,1.3-0.7,2.3-0.7h2.5l0.1,1.4h-2.7 c-0.5,0-0.8,0.1-1,0.3c-0.2,0.2-0.3,0.5-0.3,0.9c0,0.5,0.2,0.8,0.5,1s0.8,0.3,1.4,0.3c0.7,0,1.2-0.1,1.5-0.2 c0.3-0.1,0.5-0.4,0.5-0.7l0.2,1.3c-0.2,0.2-0.3,0.4-0.6,0.6s-0.5,0.3-0.8,0.3c-0.3,0.1-0.6,0.1-1,0.1 C519.2,17.6,518.4,17.4,517.9,16.9z M522.5,11.8c0-0.6-0.2-1-0.5-1.4c-0.3-0.3-0.8-0.5-1.3-0.5c-0.4,0-0.7,0.1-1,0.2 c-0.3,0.1-0.6,0.3-0.9,0.5l-1.3-0.9c0.3-0.4,0.8-0.7,1.3-1c0.6-0.2,1.2-0.3,1.8-0.3c0.7,0,1.4,0.1,1.9,0.4c0.5,0.3,0.9,0.6,1.2,1.1 c0.3,0.5,0.4,1.1,0.4,1.8v5.8h-1.7V11.8z" class="st2"/><path d="M526.2,8.5h4v1.6h-4V8.5z M527.6,16.9c-0.3-0.4-0.5-1-0.5-1.8V5.9h1.8v9.2c0,0.2,0,0.4,0.1,0.5 c0.1,0.1,0.2,0.2,0.4,0.2h0.8v1.7h-1C528.5,17.5,528,17.3,527.6,16.9z" class="st2"/><path d="M532.6,4.9h1.8v1.8h-1.8V4.9z M532.6,8.5h1.8v9h-1.8V8.5z" class="st2"/><path d="M538.8,17.5c-0.5-0.1-0.9-0.3-1.3-0.5c-0.4-0.2-0.8-0.5-1.1-0.8l1-1.3c0.5,0.4,1,0.6,1.4,0.8 c0.5,0.2,0.9,0.3,1.4,0.3c0.7,0,1.2-0.1,1.6-0.3s0.5-0.5,0.5-1c0-0.3-0.1-0.5-0.3-0.6c-0.2-0.1-0.4-0.2-0.7-0.3 c-0.3,0-0.7-0.1-1.2-0.1c0,0-0.1,0-0.1,0s-0.1,0-0.1,0c0,0,0,0-0.1,0c0,0,0,0-0.1,0c-0.6,0-1.1-0.1-1.5-0.3c-0.4-0.1-0.7-0.4-1-0.7 c-0.3-0.3-0.4-0.8-0.4-1.5s0.1-1.2,0.4-1.6c0.3-0.4,0.6-0.7,1.2-0.9c0.5-0.2,1.2-0.3,1.9-0.3c0.5,0,0.9,0,1.3,0.1 c0.4,0.1,0.8,0.2,1.2,0.4c0.4,0.2,0.8,0.4,1.1,0.6l-1.1,1.3c-0.4-0.3-0.9-0.5-1.3-0.6c-0.4-0.1-0.9-0.2-1.3-0.2 c-0.6,0-1,0.1-1.3,0.3s-0.4,0.5-0.4,0.9c0,0.2,0.1,0.4,0.3,0.5c0.2,0.1,0.4,0.2,0.6,0.2c0.3,0,0.6,0.1,1.1,0.1c0,0,0.1,0,0.1,0 s0.1,0,0.1,0c0,0,0,0,0.1,0c0,0,0,0,0.1,0c0.6,0,1.2,0.1,1.6,0.2c0.4,0.1,0.8,0.4,1.1,0.8c0.3,0.4,0.4,0.9,0.4,1.6 c0,0.6-0.1,1.2-0.4,1.6c-0.3,0.4-0.7,0.7-1.2,1c-0.6,0.2-1.3,0.3-2.1,0.3C539.7,17.6,539.2,17.6,538.8,17.5z" class="st2"/><path d="M545.5,8.5h4.5V10h-4.5V8.5z M546.5,7.3c0-0.8,0.2-1.4,0.5-1.8c0.4-0.4,0.9-0.6,1.7-0.6h1.3v1.7h-1.3 c-0.2,0-0.3,0.1-0.4,0.2s-0.1,0.3-0.1,0.5v10.2h-1.8V7.3z" class="st2"/><path d="M551.9,16.9c-0.5-0.5-0.8-1.2-0.8-2.1c0-0.9,0.3-1.5,0.8-2c0.5-0.4,1.3-0.7,2.3-0.7h2.5l0.1,1.4h-2.7 c-0.5,0-0.8,0.1-1,0.3c-0.2,0.2-0.3,0.5-0.3,0.9c0,0.5,0.2,0.8,0.5,1s0.8,0.3,1.4,0.3c0.7,0,1.2-0.1,1.5-0.2 c0.3-0.1,0.5-0.4,0.5-0.7l0.2,1.3c-0.2,0.2-0.3,0.4-0.6,0.6s-0.5,0.3-0.8,0.3c-0.3,0.1-0.6,0.1-1,0.1 C553.2,17.6,552.4,17.4,551.9,16.9z M556.5,11.8c0-0.6-0.2-1-0.5-1.4c-0.3-0.3-0.8-0.5-1.3-0.5c-0.4,0-0.7,0.1-1,0.2 c-0.3,0.1-0.6,0.3-0.9,0.5l-1.3-0.9c0.3-0.4,0.8-0.7,1.3-1c0.6-0.2,1.2-0.3,1.8-0.3c0.7,0,1.4,0.1,1.9,0.4c0.5,0.3,0.9,0.6,1.2,1.1 c0.3,0.5,0.4,1.1,0.4,1.8v5.8h-1.7V11.8z" class="st2"/><path d="M560.9,4.9h1.8v1.8h-1.8V4.9z M560.9,8.5h1.8v9h-1.8V8.5z" class="st2"/><path d="M564.6,8.5h4v1.6h-4V8.5z M566.1,16.9c-0.3-0.4-0.5-1-0.5-1.8V5.9h1.8v9.2c0,0.2,0,0.4,0.1,0.5 c0.1,0.1,0.2,0.2,0.4,0.2h0.8v1.7h-1C566.9,17.5,566.4,17.3,566.1,16.9z" class="st2"/><path d="M572.8,17.5c-0.5-0.1-0.9-0.3-1.3-0.5c-0.4-0.2-0.8-0.5-1.1-0.8l1-1.3c0.5,0.4,1,0.6,1.4,0.8 c0.5,0.2,0.9,0.3,1.4,0.3c0.7,0,1.2-0.1,1.6-0.3s0.5-0.5,0.5-1c0-0.3-0.1-0.5-0.3-0.6c-0.2-0.1-0.4-0.2-0.7-0.3 c-0.3,0-0.7-0.1-1.2-0.1c0,0-0.1,0-0.1,0s-0.1,0-0.1,0c0,0,0,0-0.1,0c0,0,0,0-0.1,0c-0.6,0-1.1-0.1-1.5-0.3c-0.4-0.1-0.7-0.4-1-0.7 c-0.3-0.3-0.4-0.8-0.4-1.5s0.1-1.2,0.4-1.6c0.3-0.4,0.6-0.7,1.2-0.9c0.5-0.2,1.2-0.3,1.9-0.3c0.5,0,0.9,0,1.3,0.1 c0.4,0.1,0.8,0.2,1.2,0.4c0.4,0.2,0.8,0.4,1.1,0.6l-1.1,1.3c-0.4-0.3-0.9-0.5-1.3-0.6c-0.4-0.1-0.9-0.2-1.3-0.2 c-0.6,0-1,0.1-1.3,0.3s-0.4,0.5-0.4,0.9c0,0.2,0.1,0.4,0.3,0.5c0.2,0.1,0.4,0.2,0.6,0.2c0.3,0,0.6,0.1,1.1,0.1c0,0,0.1,0,0.1,0 s0.1,0,0.1,0c0,0,0,0,0.1,0c0,0,0,0,0.1,0c0.6,0,1.2,0.1,1.6,0.2c0.4,0.1,0.8,0.4,1.1,0.8c0.3,0.4,0.4,0.9,0.4,1.6 c0,0.6-0.1,1.2-0.4,1.6c-0.3,0.4-0.7,0.7-1.2,1c-0.6,0.2-1.3,0.3-2.1,0.3C573.7,17.6,573.2,17.6,572.8,17.5z" class="st2"/></g></svg>